<svg xmlns="http://www.w3.org/2000/svg" xmlns:xlink="http://www.w3.org/1999/xlink" width="530" zoomAndPan="magnify" viewBox="0 0 397.5 269.999989" height="360" preserveAspectRatio="xMidYMid meet" version="1.0"><path fill="#f03f72" d="M 319.273438 159.78125 C 327.910156 151.796875 326.925781 136.464844 317.726562 131.191406 C 320.273438 123.722656 316.027344 114.535156 308.707031 110.453125 C 305.25 108.527344 309.121094 107.5 309.75 103.796875 C 310.316406 100.449219 310.53125 96.90625 310.070312 93.527344 C 309.28125 87.804688 306.703125 82.640625 302.269531 78.886719 C 300.117188 77.0625 297.542969 75.632812 294.859375 74.757812 C 292.8125 74.089844 289.207031 74.371094 288.007812 72.683594 C 286.644531 70.761719 286.488281 66.542969 285.609375 64.285156 C 284.464844 61.355469 282.972656 58.507812 281.160156 55.933594 C 274.859375 46.980469 261.730469 43.621094 251.0625 46.011719 C 248.976562 42.007812 248.910156 36.292969 244.886719 34.0625 C 239.332031 30.984375 231.160156 30.839844 224.832031 30.800781 C 220.710938 29.386719 216.507812 31.171875 212.230469 31.695312 C 209.617188 31.414062 207.585938 30.199219 205.148438 28.613281 C 201.503906 26.242188 197.949219 23.953125 193.511719 24.304688 C 191.21875 23.191406 188.789062 22.351562 186.007812 22.144531 C 178.136719 21.546875 170.894531 24.878906 164.195312 28.59375 C 158.816406 31.574219 154.519531 32 148.472656 30.984375 C 144.855469 30.375 141.292969 29.921875 137.613281 30.023438 C 130.902344 30.207031 123.945312 32.09375 118.925781 36.742188 C 117.722656 37.855469 116.867188 39.191406 115.773438 40.375 C 113.234375 43.113281 111.5625 43.40625 108.046875 43.078125 C 104.59375 42.753906 101.351562 42.539062 97.914062 43.222656 C 92.027344 44.394531 86.378906 47.324219 82.066406 51.476562 C 77.746094 52.886719 75 56.660156 73.566406 61.234375 C 72.40625 64.9375 72.191406 68.867188 71.019531 72.5625 C 69.683594 76.78125 66.753906 79.824219 63.929688 83.101562 C 55.382812 93.023438 52.835938 106.691406 58.933594 118.636719 C 60.25 121.210938 63.734375 124.28125 64.113281 127.113281 C 64.34375 128.828125 63.605469 131.144531 63.605469 132.945312 C 63.601562 134.664062 63.714844 136.371094 63.992188 138.070312 C 65.019531 144.34375 67.804688 150.375 72.074219 155.101562 C 80.75 164.714844 90.851562 169.300781 109.359375 161.847656 C 110.742188 177.304688 119.75 184.140625 130.398438 189.867188 C 143.878906 197.121094 158.4375 194.605469 173.046875 195.875 C 182.433594 196.695312 190.195312 200.578125 195.566406 206.925781 C 195.859375 207.410156 196.144531 207.898438 196.410156 208.398438 C 198.160156 211.695312 199.449219 215.417969 201.761719 218.375 C 202.121094 219.515625 202.449219 220.683594 202.710938 221.898438 C 203.363281 224.957031 203.691406 228.125 203.59375 231.253906 C 203.496094 234.445312 202.378906 237.925781 203.269531 241.070312 C 204.984375 247.144531 213.542969 248.28125 218.847656 248.972656 C 225.953125 249.898438 231.492188 248.328125 233.933594 241.03125 C 235.316406 236.898438 233.46875 231.828125 233.695312 227.398438 C 242.585938 229.449219 255.054688 228.917969 263.65625 226.714844 C 273.699219 224.144531 283.144531 219.839844 288.085938 210.527344 C 288.335938 210.050781 288.890625 208.871094 288.859375 208.464844 C 289.269531 207.3125 292.578125 202.789062 292.726562 201.511719 C 299.796875 200.585938 303.082031 200.496094 308.578125 195.714844 C 313.058594 191.816406 317.679688 183.019531 317.082031 177.167969 C 322.710938 174.832031 322.035156 174.28125 323.140625 168.152344 C 323.996094 163.410156 322.980469 161.71875 319.273438 159.78125 " fill-opacity="1" fill-rule="nonzero"/><path fill="#ee245b" d="M 321.566406 163.019531 C 320.921875 161.1875 319.722656 159.699219 318.3125 158.394531 C 317.296875 157.453125 316.019531 156.730469 315.066406 155.730469 C 313.375 153.945312 313.136719 152.140625 312.210938 150.023438 C 310.445312 145.976562 307.394531 144.46875 303.410156 143.121094 C 301.027344 142.3125 299.632812 141.828125 298.0625 139.757812 C 296.65625 137.910156 295.882812 136.03125 293.453125 135.398438 C 288.425781 134.089844 285.660156 141.101562 280.8125 136.898438 C 276.234375 132.929688 275.484375 123.402344 274.046875 117.816406 C 271.535156 108.078125 270.371094 92.171875 259.058594 88.351562 C 255.238281 87.0625 251.683594 88.09375 248.398438 90.148438 C 246.207031 91.519531 243.84375 93.980469 240.980469 93.089844 C 238.433594 92.300781 236.691406 89.152344 234.90625 87.339844 C 232.085938 84.484375 228.058594 82.035156 223.894531 83.082031 C 219.113281 84.285156 218.515625 89.074219 216.683594 92.882812 C 213.796875 98.863281 207.519531 104.542969 200.578125 101.769531 C 196.082031 99.976562 191.324219 97.167969 187.003906 101.09375 C 183.503906 104.277344 183.273438 113.621094 176.484375 110.175781 C 172.160156 107.984375 172.160156 101.789062 167.171875 100.0625 C 162.890625 98.582031 158.667969 101.390625 156.570312 105.011719 C 153.683594 110 154.65625 116.890625 148.203125 119.105469 C 135.339844 123.523438 135.15625 105.09375 127.921875 99.25 C 126.488281 98.089844 124.625 98.566406 123.453125 99.796875 C 121.59375 101.75 120.605469 103.996094 119.945312 106.582031 C 119.21875 109.445312 119.25 113.367188 117.292969 115.710938 C 112.910156 120.957031 101.507812 114.226562 96.804688 112.15625 C 82.773438 105.96875 68.746094 95.820312 68.574219 78.9375 C 68.554688 76.996094 65.644531 77.175781 65.316406 78.917969 C 65.222656 79.414062 65.15625 79.90625 65.089844 80.390625 C 64.699219 80.527344 64.320312 80.757812 63.988281 81.132812 C 57.257812 88.722656 54.3125 99.207031 56.3125 109.203125 C 57.425781 114.78125 60.734375 119.171875 62.527344 124.453125 C 64.488281 130.226562 63.523438 136.601562 65.253906 142.503906 C 70.65625 160.90625 92.132812 172.511719 108.84375 161.605469 C 113.035156 170.28125 117.804688 178.988281 125.707031 184.785156 C 134.875 191.511719 147.082031 194.21875 158.246094 195.046875 C 164.257812 195.496094 170.367188 194.347656 176.324219 195.082031 C 182.707031 195.867188 188.128906 199.714844 192.042969 204.664062 C 198.488281 212.8125 199.554688 222.46875 202.417969 232.078125 C 204.675781 239.660156 209.621094 247.75 218.554688 247.683594 C 226.574219 247.625 234.054688 240.804688 234.023438 232.636719 C 234.015625 230.746094 233.136719 228.816406 233.242188 226.96875 C 233.414062 223.863281 234.542969 224.28125 237.25 224.699219 C 238.265625 224.855469 239.644531 225.550781 240.5625 225.871094 C 246.144531 227.816406 251.894531 229.714844 257.886719 229.367188 C 267.425781 228.820312 277.761719 222.296875 283.574219 215.421875 C 286.824219 211.574219 290.792969 202.027344 291.566406 201.765625 C 294.746094 200.707031 299.480469 200.222656 304.042969 197.933594 C 307.5625 196.167969 310.761719 193.921875 312.789062 190.46875 C 314.214844 188.039062 314.671875 185.367188 315.566406 182.734375 C 316.554688 179.824219 318.15625 177.257812 319.554688 174.539062 C 321.367188 171.019531 322.960938 166.972656 321.566406 163.019531 " fill-opacity="1" fill-rule="nonzero"/><path fill="#211d1d" d="M 289.953125 203.1875 C 286.625 210.878906 281.078125 217.519531 274.023438 222.070312 C 266.480469 226.9375 257.507812 229.117188 248.5625 228.480469 C 243.246094 228.101562 238.007812 226.695312 233.226562 224.351562 C 231.53125 223.523438 230.082031 225.914062 231.730469 226.90625 C 231.621094 226.839844 231.480469 226.710938 231.429688 226.59375 L 231.507812 226.722656 C 231.511719 226.71875 231.480469 226.601562 231.558594 226.878906 C 231.652344 227.222656 231.726562 227.613281 231.765625 227.929688 C 231.914062 229.066406 231.925781 230.226562 231.929688 231.371094 C 231.9375 233.832031 231.816406 236.296875 231.582031 238.746094 C 231.164062 243.152344 228.65625 249.574219 222.875 248.902344 C 218.464844 248.390625 213.148438 247.746094 208.746094 246.164062 C 206.699219 245.429688 205.941406 243.191406 205.558594 241.105469 C 205.007812 238.132812 205.164062 235.0625 205.027344 232.058594 C 204.878906 228.824219 204.105469 225.703125 203.164062 222.613281 C 202.0625 219.003906 200.644531 215.472656 198.882812 212.128906 C 195.535156 205.769531 190.628906 199.582031 184.1875 196.136719 C 181.285156 194.582031 178.101562 193.875 174.820312 193.886719 C 171.105469 193.894531 167.417969 194.507812 163.695312 194.542969 C 155.695312 194.617188 147.648438 193.628906 139.925781 191.539062 C 132.824219 189.617188 125.714844 186.765625 120.328125 181.601562 C 116.023438 177.476562 113.265625 172.167969 111.984375 166.371094 C 111.675781 164.96875 111.445312 163.550781 111.292969 162.121094 C 111.09375 160.246094 108.128906 160.226562 108.332031 162.121094 C 109 168.339844 110.863281 174.445312 114.605469 179.527344 C 119.023438 185.53125 125.316406 189.503906 132.203125 192.144531 C 140.035156 195.152344 148.441406 196.722656 156.792969 197.292969 C 160.835938 197.570312 164.898438 197.589844 168.9375 197.285156 C 172.566406 197.007812 176.152344 196.441406 179.722656 197.472656 C 183.214844 198.480469 186.25 200.804688 188.816406 203.3125 C 191.644531 206.074219 193.957031 209.304688 195.863281 212.761719 C 199.300781 218.992188 201.917969 226.257812 202.113281 233.421875 C 202.253906 238.496094 201.734375 246.550781 207.503906 248.84375 C 209.984375 249.832031 212.71875 250.273438 215.339844 250.730469 C 217.796875 251.160156 220.269531 251.535156 222.742188 251.84375 C 229.234375 252.65625 233.453125 246.457031 234.316406 240.683594 C 234.660156 238.367188 234.785156 236 234.855469 233.660156 C 234.929688 231.28125 235.046875 228.714844 234.488281 226.378906 C 234.296875 225.582031 233.957031 224.792969 233.226562 224.351562 C 232.730469 225.203125 232.230469 226.054688 231.730469 226.90625 C 240.726562 231.316406 251.019531 232.621094 260.835938 230.617188 C 269.800781 228.785156 278.046875 224.007812 284.25 217.304688 C 287.6875 213.589844 290.5 209.324219 292.507812 204.679688 C 293.257812 202.949219 290.707031 201.441406 289.953125 203.1875 " fill-opacity="1" fill-rule="nonzero"/><path fill="#211d1d" d="M 176.800781 195.921875 C 192.902344 191.183594 209.625 193.144531 225.917969 195.703125 C 233.445312 196.882812 241.015625 197.875 248.507812 199.253906 C 255.53125 200.550781 262.523438 202.023438 269.621094 202.882812 C 277.308594 203.8125 285.308594 204.035156 292.796875 201.773438 C 294.617188 201.226562 293.839844 198.367188 292.011719 198.921875 C 285.433594 200.910156 278.460938 200.839844 271.683594 200.152344 C 264.542969 199.425781 257.507812 197.941406 250.464844 196.621094 C 243.050781 195.230469 235.566406 194.25 228.121094 193.070312 C 220.027344 191.789062 211.90625 190.5625 203.714844 190.15625 C 194.386719 189.691406 185 190.425781 176.015625 193.066406 C 174.191406 193.605469 174.964844 196.460938 176.800781 195.921875 " fill-opacity="1" fill-rule="nonzero"/><path fill="#211d1d" d="M 194.578125 192.46875 C 195.09375 197.746094 198.703125 202.265625 203.808594 203.808594 C 203.515625 203.085938 203.21875 202.359375 202.925781 201.636719 C 199.246094 208.796875 202.753906 217.636719 210.496094 220.085938 C 211.390625 220.367188 212.304688 220.511719 213.234375 220.613281 C 214.039062 220.699219 214.941406 220.699219 215.613281 221.21875 C 216.375 221.800781 216.878906 222.757812 217.589844 223.417969 C 218.203125 223.988281 218.886719 224.507812 219.601562 224.949219 C 222.710938 226.863281 226.582031 227.386719 230.082031 226.359375 C 231.90625 225.828125 231.128906 222.96875 229.292969 223.507812 C 226.402344 224.355469 223.308594 223.867188 220.792969 222.199219 C 219.429688 221.296875 218.664062 219.882812 217.414062 218.882812 C 216.140625 217.871094 214.609375 217.835938 213.066406 217.636719 C 206.234375 216.753906 202.347656 209.222656 205.480469 203.128906 C 205.921875 202.269531 205.546875 201.242188 204.597656 200.957031 C 200.839844 199.824219 197.921875 196.398438 197.539062 192.46875 C 197.355469 190.589844 194.390625 190.570312 194.578125 192.46875 " fill-opacity="1" fill-rule="nonzero"/><path fill="#211d1d" d="M 111.769531 158.964844 C 111.210938 148.980469 112.839844 137.058594 122.605469 131.835938 C 124.695312 130.71875 126.859375 130.289062 129.207031 130.140625 C 130.433594 130.066406 131.632812 129.917969 132.75 129.378906 C 133.914062 128.816406 134.851562 127.890625 135.820312 127.058594 C 139.273438 124.078125 143.550781 122.191406 148.023438 121.359375 C 152.476562 120.535156 157.160156 120.867188 161.453125 122.3125 C 163.785156 123.097656 165.722656 124.488281 167.949219 125.464844 C 170.425781 126.550781 172.578125 125.722656 174.503906 124.015625 C 178.523438 120.441406 182.488281 117.039062 187.378906 114.679688 C 191.988281 112.457031 197.109375 111.351562 202.222656 111.875 C 204.933594 112.15625 207.628906 112.953125 210.011719 114.28125 C 212.453125 115.640625 214.675781 117.933594 217.535156 116.015625 C 218.6875 115.242188 219.664062 114.167969 220.71875 113.269531 C 221.84375 112.3125 223.011719 111.414062 224.261719 110.625 C 226.722656 109.078125 229.515625 108.007812 232.4375 108.703125 C 233.390625 108.929688 234.285156 108.261719 234.3125 107.277344 C 234.472656 101.71875 238.75 96.890625 244.175781 95.859375 C 246.042969 95.5 245.25 92.648438 243.386719 93.003906 C 236.660156 94.285156 231.546875 100.484375 231.351562 107.277344 C 231.976562 106.800781 232.601562 106.328125 233.226562 105.851562 C 227.734375 104.542969 222.820312 107.636719 218.785156 111.042969 C 217.867188 111.816406 217.023438 112.777344 216.039062 113.460938 C 214.75 114.359375 213.597656 113.019531 212.511719 112.324219 C 210.386719 110.96875 207.976562 110.003906 205.515625 109.445312 C 194.699219 106.988281 184.207031 111.8125 176.050781 118.652344 C 175.035156 119.5 174.054688 120.386719 173.089844 121.289062 C 172.261719 122.066406 171.28125 123.152344 170.039062 123.046875 C 168.800781 122.945312 167.609375 121.886719 166.550781 121.316406 C 165.488281 120.75 164.382812 120.257812 163.253906 119.824219 C 158.769531 118.101562 153.808594 117.613281 149.050781 118.226562 C 144.398438 118.828125 139.847656 120.464844 136.007812 123.179688 C 133.957031 124.628906 132.257812 126.925781 129.621094 127.15625 C 127.074219 127.382812 124.765625 127.621094 122.390625 128.664062 C 117.480469 130.816406 113.632812 135.113281 111.492188 139.96875 C 108.863281 145.933594 108.449219 152.535156 108.808594 158.964844 C 108.914062 160.859375 111.875 160.871094 111.769531 158.964844 " fill-opacity="1" fill-rule="nonzero"/><path fill="#211d1d" d="M 124.734375 151.683594 C 134.898438 161.082031 151.265625 162.570312 162.898438 154.996094 C 162.515625 155.042969 162.136719 155.09375 161.757812 155.144531 C 170.710938 156.460938 180.375 156.222656 189.03125 153.351562 C 195.605469 151.167969 202.292969 146.898438 203.914062 139.710938 C 203.011719 139.828125 202.113281 139.949219 201.207031 140.066406 C 207.746094 148.914062 220.53125 148.675781 230.367188 147.367188 C 240.265625 146.050781 249.71875 142.386719 257.355469 135.859375 C 262.308594 131.621094 266.273438 126.328125 269.328125 120.59375 C 270.222656 118.914062 267.667969 117.417969 266.773438 119.101562 C 261.914062 128.214844 254.730469 135.714844 245.3125 140.125 C 237.265625 143.894531 227.90625 145.402344 219.058594 144.988281 C 213.511719 144.726562 207.246094 143.28125 203.765625 138.570312 C 203.070312 137.632812 201.367188 137.570312 201.0625 138.925781 C 199.964844 143.78125 196.085938 147.011719 191.765625 149.089844 C 186.515625 151.617188 180.453125 152.554688 174.683594 152.851562 C 171.429688 153.015625 168.164062 152.933594 164.921875 152.59375 C 164.070312 152.503906 163.199219 152.300781 162.347656 152.265625 C 161.59375 152.230469 161.125 152.632812 160.503906 153.007812 C 159.40625 153.671875 158.261719 154.261719 157.078125 154.757812 C 152.417969 156.691406 147.210938 157.292969 142.21875 156.644531 C 136.523438 155.90625 131.054688 153.496094 126.828125 149.589844 C 125.429688 148.300781 123.332031 150.386719 124.734375 151.683594 " fill-opacity="1" fill-rule="nonzero"/><path fill="#211d1d" d="M 136.242188 162.332031 C 132.664062 165.207031 131.804688 170.816406 134.214844 174.683594 C 134.636719 175.359375 135.539062 175.625 136.242188 175.214844 C 136.917969 174.820312 137.195312 173.871094 136.773438 173.191406 C 136.644531 172.988281 136.527344 172.78125 136.417969 172.570312 C 136.378906 172.484375 136.335938 172.398438 136.296875 172.3125 C 136.402344 172.539062 136.273438 172.253906 136.257812 172.210938 C 136.097656 171.789062 135.976562 171.355469 135.894531 170.914062 C 135.894531 170.921875 135.832031 170.515625 135.855469 170.6875 C 135.878906 170.867188 135.835938 170.496094 135.832031 170.460938 C 135.816406 170.222656 135.804688 169.984375 135.804688 169.75 C 135.808594 169.535156 135.816406 169.320312 135.832031 169.109375 C 135.839844 168.988281 135.851562 168.871094 135.867188 168.753906 C 135.839844 168.96875 135.871094 168.753906 135.886719 168.652344 C 135.96875 168.207031 136.082031 167.765625 136.230469 167.339844 C 136.261719 167.25 136.292969 167.164062 136.328125 167.074219 C 136.480469 166.652344 136.261719 167.199219 136.371094 166.96875 C 136.46875 166.75 136.574219 166.542969 136.691406 166.335938 C 136.796875 166.148438 136.910156 165.96875 137.027344 165.789062 C 137.023438 165.796875 137.246094 165.480469 137.160156 165.59375 C 137.066406 165.71875 137.289062 165.4375 137.308594 165.414062 C 137.621094 165.050781 137.964844 164.726562 138.335938 164.425781 C 138.957031 163.925781 138.855469 162.855469 138.335938 162.332031 C 137.71875 161.71875 136.867188 161.832031 136.242188 162.332031 " fill-opacity="1" fill-rule="nonzero"/><path fill="#211d1d" d="M 165.402344 178.996094 C 167.128906 179.558594 168.710938 178.824219 170.355469 178.355469 C 172.382812 177.78125 174.285156 178.679688 176.128906 179.484375 C 179.925781 181.132812 183.625 182.066406 187.785156 181.46875 C 191.832031 180.886719 195.132812 178.949219 198.207031 176.355469 C 199.699219 175.09375 201.207031 173.726562 203.046875 172.992188 C 204.648438 172.351562 206.378906 172.265625 208.078125 172.4375 C 211.664062 172.804688 215.058594 174.253906 218.582031 174.949219 C 222.445312 175.707031 225.890625 175.359375 229.402344 173.523438 C 231.34375 172.507812 233.195312 171.4375 235.410156 171.128906 C 237.582031 170.828125 239.8125 171.128906 241.929688 171.617188 C 245.730469 172.496094 249.339844 174.253906 253.207031 174.804688 C 257 175.347656 260.882812 175.09375 264.636719 174.367188 C 268.277344 173.664062 272.003906 172.445312 275.042969 170.265625 C 276.578125 169.164062 275.097656 166.597656 273.546875 167.710938 C 268.371094 171.421875 261.039062 172.578125 254.800781 172.035156 C 251.148438 171.714844 247.742188 170.109375 244.238281 169.152344 C 240.160156 168.039062 235.738281 167.464844 231.710938 169.078125 C 229.785156 169.851562 228.0625 171.074219 226.121094 171.804688 C 224.496094 172.414062 222.796875 172.523438 221.082031 172.359375 C 217.546875 172.015625 214.195312 170.605469 210.734375 169.890625 C 207.242188 169.171875 203.679688 169.167969 200.492188 170.957031 C 197.089844 172.871094 194.671875 176.097656 190.984375 177.578125 C 186.769531 179.265625 182.328125 178.957031 178.207031 177.183594 C 176.1875 176.3125 174.007812 175.15625 171.75 175.152344 C 170.769531 175.148438 169.804688 175.417969 168.882812 175.71875 C 168.011719 176 167.101562 176.4375 166.191406 176.144531 C 164.375 175.550781 163.597656 178.40625 165.402344 178.996094 " fill-opacity="1" fill-rule="nonzero"/><path fill="#211d1d" d="M 100.824219 100.390625 C 108.609375 101.832031 114.535156 95.746094 118.730469 90.035156 C 120.894531 87.089844 122.964844 84.007812 125.78125 81.632812 C 128.65625 79.210938 132.308594 78.015625 136.011719 77.671875 C 140.386719 77.265625 144.789062 77.789062 149.121094 78.355469 C 149.921875 78.460938 150.59375 77.601562 150.601562 76.875 C 150.613281 75.992188 149.910156 75.5 149.121094 75.398438 C 141.824219 74.441406 133.832031 73.601562 127.078125 77.207031 C 120.464844 80.734375 117.597656 87.886719 112.492188 92.972656 C 109.667969 95.785156 105.777344 98.308594 101.609375 97.539062 C 99.746094 97.195312 98.949219 100.042969 100.824219 100.390625 " fill-opacity="1" fill-rule="nonzero"/><path fill="#211d1d" d="M 153.238281 46.464844 C 156.933594 44.792969 161.398438 46.664062 162.738281 50.492188 C 164.191406 54.644531 161.253906 58.554688 159.046875 61.835938 C 154.765625 68.214844 149.730469 74.957031 150.605469 83.089844 C 151.027344 87.007812 152.683594 90.53125 155.917969 92.875 C 157.460938 93.996094 158.941406 91.429688 157.414062 90.324219 C 154.554688 88.246094 153.457031 84.628906 153.46875 81.230469 C 153.484375 77.144531 155.128906 73.433594 157.203125 69.988281 C 161.132812 63.449219 170.011719 54.832031 164.140625 46.902344 C 161.25 43 156.085938 41.941406 151.746094 43.910156 C 150.011719 44.695312 151.515625 47.246094 153.238281 46.464844 " fill-opacity="1" fill-rule="nonzero"/><path fill="#211d1d" d="M 185.589844 36.585938 C 189.882812 39.5625 192.523438 44.65625 192.585938 49.859375 C 192.609375 51.761719 195.566406 51.765625 195.546875 49.859375 C 195.472656 43.558594 192.25 37.613281 187.082031 34.03125 C 186.425781 33.578125 185.441406 33.910156 185.058594 34.5625 C 184.628906 35.300781 184.933594 36.128906 185.589844 36.585938 " fill-opacity="1" fill-rule="nonzero"/><path fill="#211d1d" d="M 204.054688 45.324219 C 197.261719 44.550781 191.578125 51.019531 189.59375 56.882812 C 189.082031 58.382812 188.769531 60.035156 188.925781 61.625 C 189.003906 62.421875 189.550781 63.105469 190.40625 63.105469 C 191.144531 63.105469 191.964844 62.425781 191.886719 61.625 C 191.851562 61.246094 191.835938 60.867188 191.851562 60.488281 C 191.859375 60.289062 191.878906 60.089844 191.898438 59.890625 C 191.933594 59.5625 191.878906 59.96875 191.933594 59.667969 C 192.074219 58.84375 192.300781 58.039062 192.589844 57.257812 C 193.160156 55.71875 194.117188 54.078125 195.207031 52.742188 C 197.445312 50 200.523438 47.878906 204.054688 48.28125 C 204.851562 48.371094 205.535156 47.535156 205.535156 46.800781 C 205.535156 45.925781 204.851562 45.414062 204.054688 45.324219 " fill-opacity="1" fill-rule="nonzero"/><path fill="#211d1d" d="M 189.597656 57.414062 C 184.375 59.324219 180.570312 63.5625 178.511719 68.652344 C 176.046875 74.761719 176.53125 81.644531 178.023438 87.925781 C 178.464844 89.777344 181.320312 88.992188 180.878906 87.136719 C 179.554688 81.566406 179.109375 75.597656 181.105469 70.125 C 182.6875 65.789062 185.980469 61.878906 190.382812 60.265625 C 192.160156 59.617188 191.390625 56.757812 189.597656 57.414062 " fill-opacity="1" fill-rule="nonzero"/><path fill="#211d1d" d="M 94.042969 70.402344 C 94.792969 66.230469 96.367188 62.207031 99.136719 58.953125 C 101.609375 56.039062 104.773438 53.847656 108.257812 52.308594 C 112.070312 50.621094 116.410156 49.546875 120.585938 49.605469 C 123.324219 49.644531 126.027344 50.160156 128.59375 51.105469 C 129.777344 51.542969 130.914062 52.253906 132.214844 52.167969 C 133.433594 52.085938 134.246094 51.285156 134.910156 50.339844 C 137.804688 46.25 142.96875 46.195312 147.554688 46.3125 C 149.457031 46.363281 149.457031 43.402344 147.554688 43.355469 C 143.234375 43.242188 138.335938 43.359375 134.765625 46.125 C 133.925781 46.78125 133.242188 47.550781 132.636719 48.425781 C 132.273438 48.953125 132.210938 49.207031 131.597656 49.148438 C 130.863281 49.078125 129.871094 48.425781 129.175781 48.175781 C 126.570312 47.242188 123.792969 46.746094 121.023438 46.65625 C 112.667969 46.394531 103.363281 49.972656 97.667969 56.152344 C 94.207031 59.90625 92.085938 64.613281 91.191406 69.617188 C 90.855469 71.480469 93.710938 72.277344 94.042969 70.402344 " fill-opacity="1" fill-rule="nonzero"/><path fill="#211d1d" d="M 205.957031 46.25 C 206.753906 41.625 209.886719 38.140625 214.0625 36.160156 C 217.351562 34.597656 221.851562 33.765625 225.285156 35.269531 C 227.011719 36.023438 228.523438 33.476562 226.777344 32.710938 C 222.3125 30.761719 217.109375 31.519531 212.785156 33.5 C 207.898438 35.746094 204.027344 40.082031 203.101562 45.464844 C 202.777344 47.328125 205.632812 48.128906 205.957031 46.25 " fill-opacity="1" fill-rule="nonzero"/><path fill="#211d1d" d="M 182.113281 92.09375 C 185.65625 92.152344 189.15625 93.972656 191.117188 96.949219 C 193.222656 100.148438 193.484375 104.398438 191.785156 107.832031 C 190.945312 109.535156 193.496094 111.035156 194.34375 109.324219 C 196.5 104.96875 196.378906 99.5625 193.671875 95.453125 C 191.128906 91.59375 186.730469 89.210938 182.113281 89.136719 C 180.207031 89.105469 180.207031 92.0625 182.113281 92.09375 " fill-opacity="1" fill-rule="nonzero"/><path fill="#211d1d" d="M 158.445312 96 C 163.089844 98.234375 164.113281 104.121094 160.460938 107.785156 C 158.863281 109.390625 156.972656 110.859375 156.535156 113.21875 C 156.113281 115.480469 156.902344 117.875 158.675781 119.359375 C 160.128906 120.574219 162.234375 118.492188 160.773438 117.269531 C 158.925781 115.71875 159.050781 113.421875 160.628906 111.738281 C 162.40625 109.84375 164.230469 108.375 165.136719 105.839844 C 166.84375 101.046875 164.484375 95.632812 159.941406 93.445312 C 158.230469 92.621094 156.726562 95.171875 158.445312 96 " fill-opacity="1" fill-rule="nonzero"/><path fill="#211d1d" d="M 123.703125 102.25 C 125.570312 103.160156 127.523438 104.125 128.933594 105.695312 C 130.539062 107.480469 130.113281 109.691406 130.421875 111.894531 C 131.03125 116.300781 133.835938 120.277344 137.761719 122.363281 C 139.445312 123.253906 140.941406 120.703125 139.257812 119.808594 C 137.347656 118.792969 135.789062 117.308594 134.707031 115.433594 C 133.558594 113.441406 133.304688 111.421875 133.207031 109.167969 C 133.109375 106.839844 132.3125 104.839844 130.636719 103.199219 C 129.085938 101.675781 127.132812 100.636719 125.195312 99.695312 C 123.492188 98.863281 121.988281 101.414062 123.703125 102.25 " fill-opacity="1" fill-rule="nonzero"/><path fill="#211d1d" d="M 94.074219 98.671875 C 86.25 97.40625 77.847656 97.976562 71.546875 103.265625 C 66.261719 107.707031 64.023438 115.152344 67.195312 121.503906 C 68.820312 124.761719 71.753906 126.636719 75.050781 127.941406 C 78.183594 129.183594 82.097656 130.101562 83.992188 133.179688 C 85.039062 134.886719 84.597656 136.636719 84.316406 138.496094 C 84.050781 140.277344 84.089844 142.039062 84.484375 143.796875 C 85.273438 147.3125 87.390625 150.507812 90.015625 152.929688 C 92.378906 155.113281 95.339844 156.996094 98.339844 158.1875 C 101.519531 159.449219 105.046875 159.539062 108.425781 159.546875 C 110.328125 159.550781 110.332031 156.59375 108.425781 156.589844 C 105.667969 156.582031 102.847656 156.546875 100.195312 155.714844 C 97.925781 155 95.835938 153.644531 93.898438 152.289062 C 91.277344 150.457031 89.003906 147.8125 87.871094 144.796875 C 87.324219 143.34375 87.039062 141.816406 87.097656 140.261719 C 87.164062 138.445312 87.800781 136.691406 87.613281 134.863281 C 87.292969 131.71875 84.972656 129.320312 82.34375 127.792969 C 79.375 126.066406 75.867188 125.515625 72.96875 123.65625 C 67.589844 120.203125 67.640625 112.523438 71.238281 107.828125 C 76.367188 101.132812 85.542969 100.273438 93.285156 101.523438 C 95.152344 101.824219 95.953125 98.972656 94.074219 98.671875 " fill-opacity="1" fill-rule="nonzero"/><path fill="#211d1d" d="M 79.484375 99.496094 C 78.121094 92.984375 77.050781 85.363281 80.929688 79.46875 C 84.152344 74.578125 90.5625 72.101562 96.242188 73.410156 C 98.09375 73.839844 98.886719 70.988281 97.027344 70.554688 C 90.210938 68.988281 82.890625 71.757812 78.773438 77.402344 C 73.976562 83.976562 75.066406 92.824219 76.628906 100.28125 C 77.019531 102.144531 79.871094 101.359375 79.484375 99.496094 " fill-opacity="1" fill-rule="nonzero"/><path fill="#211d1d" d="M 248.832031 47.167969 C 251.125 56.136719 246.964844 65.742188 239.859375 71.375 C 236.144531 74.316406 231.570312 75.488281 227.511719 77.804688 C 223.21875 80.257812 220.164062 84.476562 220.695312 89.605469 C 221.285156 95.300781 226.058594 99.574219 231.75 99.761719 C 233.65625 99.824219 233.652344 96.867188 231.75 96.804688 C 226.941406 96.644531 223.226562 92.523438 223.628906 87.726562 C 224.046875 82.769531 228.523438 80.390625 232.59375 78.617188 C 236.699219 76.824219 240.523438 75 243.792969 71.851562 C 246.996094 68.761719 249.457031 64.921875 250.949219 60.738281 C 252.589844 56.136719 252.898438 51.117188 251.6875 46.378906 C 251.214844 44.535156 248.359375 45.316406 248.832031 47.167969 " fill-opacity="1" fill-rule="nonzero"/><path fill="#211d1d" d="M 249.410156 65.15625 C 259.101562 60.730469 271.015625 64.371094 276.46875 73.507812 C 279.042969 77.820312 279.976562 82.714844 279.382812 87.679688 C 278.765625 92.871094 277.097656 97.964844 275.171875 102.804688 C 273.253906 107.640625 270.945312 112.335938 268.339844 116.835938 C 267.382812 118.484375 269.941406 119.976562 270.894531 118.328125 C 276.242188 109.101562 280.960938 98.707031 282.300781 88.050781 C 283.703125 76.902344 277.496094 65.816406 266.832031 61.84375 C 260.710938 59.5625 253.835938 59.898438 247.917969 62.601562 C 246.1875 63.390625 247.6875 65.945312 249.410156 65.15625 " fill-opacity="1" fill-rule="nonzero"/><path fill="#211d1d" d="M 276.695312 169.164062 C 286.339844 163.003906 291.3125 150.894531 288.800781 139.738281 C 288.324219 140.363281 287.847656 140.988281 287.371094 141.613281 C 292.847656 141.519531 298.199219 139.292969 302.054688 135.378906 C 306.050781 131.320312 308.066406 125.710938 308.476562 120.105469 C 309.234375 109.742188 303.898438 98.328125 293.363281 95.25 C 287.890625 93.65625 281.917969 94.535156 277.429688 98.109375 C 275.9375 99.292969 278.046875 101.375 279.523438 100.199219 C 282.859375 97.546875 287.445312 96.898438 291.53125 97.832031 C 295.882812 98.828125 299.527344 101.535156 301.941406 105.269531 C 306.925781 112.992188 307.023438 124.445312 301.261719 131.816406 C 297.945312 136.0625 292.734375 138.5625 287.371094 138.652344 C 286.375 138.671875 285.730469 139.582031 285.945312 140.527344 C 288.160156 150.355469 283.691406 161.183594 275.199219 166.609375 C 273.601562 167.632812 275.082031 170.195312 276.695312 169.164062 " fill-opacity="1" fill-rule="nonzero"/><path fill="#211d1d" d="M 288.574219 142.941406 C 293.863281 144.261719 298.433594 147.714844 301.21875 152.390625 C 304.324219 157.609375 305 163.972656 303.546875 169.816406 C 303.085938 171.664062 305.941406 172.453125 306.398438 170.601562 C 308.042969 164 307.285156 156.789062 303.773438 150.898438 C 300.613281 145.585938 295.375 141.589844 289.363281 140.085938 C 287.515625 139.625 286.726562 142.480469 288.574219 142.941406 " fill-opacity="1" fill-rule="nonzero"/><path fill="#211d1d" d="M 304.835938 159.269531 C 308.875 161.074219 313.238281 161.644531 317.605469 160.929688 C 318.390625 160.800781 318.832031 159.824219 318.636719 159.113281 C 318.40625 158.273438 317.609375 157.949219 316.816406 158.078125 C 313.308594 158.652344 309.574219 158.164062 306.332031 156.710938 C 305.601562 156.386719 304.738281 156.503906 304.304688 157.242188 C 303.933594 157.875 304.101562 158.9375 304.835938 159.269531 " fill-opacity="1" fill-rule="nonzero"/><path fill="#211d1d" d="M 270.191406 201.984375 C 279.988281 202.226562 286.828125 193.007812 286.414062 183.714844 C 285.789062 184.191406 285.164062 184.667969 284.539062 185.140625 C 295.882812 189.089844 309.144531 185.972656 317.59375 177.464844 C 318.933594 176.109375 316.84375 174.015625 315.5 175.371094 C 307.746094 183.179688 295.707031 185.902344 285.328125 182.289062 C 284.4375 181.980469 283.414062 182.796875 283.453125 183.714844 C 283.796875 191.417969 278.421875 199.230469 270.191406 199.027344 C 268.285156 198.980469 268.285156 201.9375 270.191406 201.984375 " fill-opacity="1" fill-rule="nonzero"/><path fill="#211d1d" d="M 153.738281 170.421875 C 156.773438 174.773438 161.382812 177.929688 166.597656 179.023438 C 167.378906 179.1875 168.195312 178.792969 168.417969 177.988281 C 168.621094 177.253906 168.167969 176.335938 167.382812 176.171875 C 162.9375 175.238281 158.898438 172.664062 156.292969 168.925781 C 155.835938 168.273438 154.996094 167.972656 154.265625 168.394531 C 153.617188 168.777344 153.277344 169.761719 153.738281 170.421875 " fill-opacity="1" fill-rule="nonzero"/><path fill="#211d1d" d="M 160.03125 175.292969 C 155.90625 178.605469 154.15625 184.484375 155.671875 189.53125 C 156.214844 191.347656 159.074219 190.574219 158.527344 188.742188 C 157.300781 184.65625 158.734375 180.109375 162.125 177.386719 C 162.746094 176.886719 162.644531 175.816406 162.125 175.292969 C 161.507812 174.679688 160.65625 174.792969 160.03125 175.292969 " fill-opacity="1" fill-rule="nonzero"/><path fill="#211d1d" d="M 135.300781 157.667969 C 134.570312 159.570312 134.28125 161.667969 134.464844 163.695312 C 134.5 164.097656 134.605469 164.453125 134.898438 164.742188 C 135.152344 165 135.574219 165.191406 135.941406 165.175781 C 136.6875 165.144531 137.496094 164.519531 137.421875 163.695312 C 137.378906 163.210938 137.363281 162.726562 137.375 162.238281 C 137.378906 162.027344 137.390625 161.820312 137.40625 161.613281 C 137.417969 161.472656 137.429688 161.335938 137.445312 161.195312 C 137.457031 161.089844 137.539062 160.789062 137.445312 161.175781 C 137.554688 160.738281 137.597656 160.285156 137.707031 159.84375 C 137.828125 159.375 137.980469 158.910156 138.15625 158.457031 C 138.433594 157.730469 137.847656 156.800781 137.121094 156.632812 C 136.273438 156.441406 135.597656 156.894531 135.300781 157.667969 " fill-opacity="1" fill-rule="nonzero"/><path fill="#211d1d" d="M 66.125 125.410156 C 57.496094 133.328125 62.195312 146.660156 68.398438 154.480469 C 74.316406 161.941406 83.5 167.511719 93.207031 167.550781 C 99.371094 167.582031 105.050781 165.199219 109.859375 161.453125 C 111.363281 160.285156 109.253906 158.203125 107.765625 159.363281 C 103.988281 162.304688 99.4375 164.285156 94.621094 164.558594 C 90.328125 164.796875 86.039062 163.796875 82.1875 161.910156 C 74.554688 158.164062 68.207031 151.316406 65.503906 143.214844 C 63.722656 137.886719 63.8125 131.546875 68.21875 127.5 C 69.625 126.210938 67.527344 124.121094 66.125 125.410156 " fill-opacity="1" fill-rule="nonzero"/><path fill="#211d1d" d="M 65.988281 126.539062 C 60.203125 120.554688 56.933594 112.34375 57.121094 104.011719 C 57.304688 95.917969 60.828125 87.96875 66.644531 82.347656 C 68.078125 80.957031 69.699219 79.714844 70.761719 77.992188 C 71.925781 76.101562 72.042969 73.871094 72.5 71.753906 C 73.335938 67.886719 74.847656 64.203125 76.949219 60.847656 C 81.300781 53.902344 88.101562 48.765625 95.980469 46.484375 C 100.082031 45.296875 104.367188 44.871094 108.625 45.257812 C 110.8125 45.460938 113.027344 46.027344 115.140625 45.121094 C 116.960938 44.339844 118.171875 42.753906 119.523438 41.371094 C 124.714844 36.066406 132.007812 32.949219 139.398438 32.535156 C 143.140625 32.328125 146.882812 32.789062 150.4375 33.988281 C 152.53125 34.691406 154.496094 35.453125 156.65625 34.535156 C 158.417969 33.792969 159.714844 32.328125 161.152344 31.125 C 166.546875 26.59375 173.507812 23.964844 180.496094 23.332031 C 187.59375 22.6875 194.90625 23.933594 201.230469 27.265625 C 202.8125 28.097656 204.332031 29.050781 205.761719 30.125 C 207.230469 31.234375 208.550781 32.730469 210.355469 33.296875 C 212.222656 33.882812 214.015625 33.054688 215.84375 32.730469 C 217.375 32.457031 218.957031 32.347656 220.511719 32.445312 C 221.636719 32.519531 223.304688 32.699219 224.023438 33.710938 C 225.117188 35.253906 227.683594 33.777344 226.578125 32.21875 C 224.644531 29.484375 220.863281 29.28125 217.800781 29.523438 C 215.964844 29.671875 214.28125 30.15625 212.484375 30.488281 C 210.511719 30.847656 208.960938 28.871094 207.53125 27.78125 C 201.566406 23.234375 194.195312 20.773438 186.746094 20.292969 C 179.347656 19.8125 171.773438 21.351562 165.226562 24.84375 C 163.601562 25.714844 162.042969 26.710938 160.578125 27.824219 C 159.066406 28.972656 157.742188 30.496094 156.132812 31.492188 C 154.148438 32.71875 152.007812 31.328125 150.011719 30.753906 C 148.144531 30.214844 146.222656 29.875 144.285156 29.679688 C 136.539062 28.910156 128.421875 31.003906 122.019531 35.4375 C 120.378906 36.574219 118.828125 37.851562 117.429688 39.28125 C 115.984375 40.753906 114.761719 42.628906 112.5 42.6875 C 110.257812 42.742188 108.003906 42.175781 105.746094 42.160156 C 103.554688 42.144531 101.367188 42.347656 99.207031 42.710938 C 90.765625 44.136719 82.890625 48.597656 77.421875 55.1875 C 74.765625 58.386719 72.664062 61.96875 71.171875 65.851562 C 70.441406 67.753906 69.875 69.71875 69.492188 71.71875 C 69.046875 74.03125 68.816406 76.082031 67.113281 77.84375 C 65.65625 79.355469 64.035156 80.667969 62.652344 82.257812 C 61.28125 83.839844 60.039062 85.546875 58.972656 87.347656 C 56.804688 91.011719 55.292969 95.101562 54.613281 99.304688 C 53.246094 107.738281 55.15625 116.550781 59.894531 123.671875 C 61.074219 125.441406 62.417969 127.101562 63.894531 128.632812 C 65.222656 130.003906 67.3125 127.910156 65.988281 126.539062 " fill-opacity="1" fill-rule="nonzero"/><path fill="#211d1d" d="M 103.902344 73.648438 C 110.074219 73.929688 116.140625 76.171875 120.96875 80.042969 C 121.59375 80.542969 122.453125 80.652344 123.0625 80.042969 C 123.582031 79.523438 123.691406 78.453125 123.0625 77.953125 C 117.589844 73.5625 110.917969 71.007812 103.902344 70.691406 C 101.996094 70.605469 102 73.5625 103.902344 73.648438 " fill-opacity="1" fill-rule="nonzero"/><path fill="#211d1d" d="M 110.433594 64.402344 C 109.835938 67.496094 110.230469 70.617188 111.570312 73.46875 C 111.898438 74.171875 112.964844 74.402344 113.59375 74 C 114.316406 73.53125 114.476562 72.726562 114.125 71.972656 C 114.101562 71.929688 113.882812 71.421875 113.992188 71.6875 C 113.9375 71.558594 113.886719 71.425781 113.839844 71.296875 C 113.726562 70.988281 113.625 70.679688 113.535156 70.363281 C 113.445312 70.050781 113.371094 69.734375 113.304688 69.410156 C 113.277344 69.273438 113.25 69.136719 113.226562 68.996094 C 113.210938 68.90625 113.199219 68.8125 113.183594 68.722656 C 113.203125 68.859375 113.203125 68.875 113.191406 68.769531 C 113.132812 68.140625 113.089844 67.515625 113.105469 66.882812 C 113.117188 66.554688 113.144531 66.230469 113.171875 65.902344 C 113.214844 65.449219 113.121094 66.191406 113.191406 65.742188 C 113.222656 65.554688 113.253906 65.375 113.289062 65.191406 C 113.433594 64.433594 113.074219 63.558594 112.253906 63.371094 C 111.523438 63.203125 110.589844 63.589844 110.433594 64.402344 " fill-opacity="1" fill-rule="nonzero"/><path fill="#211d1d" d="M 300.667969 136.65625 C 304.847656 136.214844 309.074219 137.539062 312.15625 140.417969 C 313.546875 141.71875 315.644531 139.628906 314.25 138.328125 C 310.636719 134.953125 305.605469 133.179688 300.667969 133.699219 C 299.875 133.78125 299.1875 134.316406 299.1875 135.175781 C 299.1875 135.910156 299.871094 136.738281 300.667969 136.65625 " fill-opacity="1" fill-rule="nonzero"/><path fill="#211d1d" d="M 311.582031 138.332031 C 313.585938 135.996094 315.808594 133.851562 318.210938 131.929688 C 318.820312 131.441406 318.757812 130.335938 318.210938 129.835938 C 317.566406 129.246094 316.765625 129.320312 316.117188 129.835938 C 313.714844 131.761719 311.496094 133.90625 309.488281 136.238281 C 308.984375 136.828125 308.867188 137.761719 309.488281 138.332031 C 310.042969 138.839844 311.042969 138.957031 311.582031 138.332031 " fill-opacity="1" fill-rule="nonzero"/><path fill="#211d1d" d="M 163.464844 30.003906 C 170.058594 27.71875 177.113281 29.707031 182.8125 33.347656 C 184.421875 34.378906 185.910156 31.820312 184.304688 30.792969 C 177.992188 26.757812 169.972656 24.625 162.675781 27.148438 C 160.886719 27.769531 161.65625 30.628906 163.464844 30.003906 " fill-opacity="1" fill-rule="nonzero"/><path fill="#211d1d" d="M 231.105469 88.261719 C 230.578125 92.652344 231.371094 97.082031 233.226562 101.082031 C 233.566406 101.808594 234.609375 101.988281 235.253906 101.613281 C 235.996094 101.179688 236.121094 100.316406 235.785156 99.589844 C 234.144531 96.058594 233.605469 92.117188 234.0625 88.261719 C 234.160156 87.46875 233.316406 86.78125 232.582031 86.78125 C 231.707031 86.78125 231.199219 87.464844 231.105469 88.261719 " fill-opacity="1" fill-rule="nonzero"/><path fill="#211d1d" d="M 226.410156 34.910156 C 235.070312 29.515625 247.308594 36.363281 248.71875 46.042969 C 248.992188 47.921875 251.84375 47.121094 251.574219 45.257812 C 249.886719 33.683594 235.058594 26.039062 224.914062 32.355469 C 223.300781 33.359375 224.785156 35.921875 226.410156 34.910156 " fill-opacity="1" fill-rule="nonzero"/><path fill="#211d1d" d="M 250.53125 47.53125 C 257.074219 45.683594 264.242188 46.410156 270.285156 49.550781 C 276.300781 52.675781 280.855469 58.109375 283.023438 64.519531 C 284.242188 68.128906 284.6875 71.898438 284.347656 75.691406 C 284.253906 76.753906 285.367188 77.246094 286.222656 77.117188 C 293.773438 75.996094 301.515625 80.269531 305.503906 86.585938 C 310.089844 93.84375 309.953125 103.121094 306.828125 110.902344 C 306.605469 111.460938 306.972656 112.316406 307.511719 112.574219 C 314.175781 115.773438 317.835938 123.746094 315.78125 130.871094 C 315.535156 131.71875 316.242188 132.847656 317.210938 132.746094 C 323.296875 132.101562 323.839844 140.890625 324.097656 145.019531 C 324.390625 149.808594 323.515625 156.203125 318.273438 158.09375 C 317.042969 158.539062 316.839844 160.058594 317.921875 160.800781 C 320.632812 162.664062 322.160156 166.207031 321.464844 169.457031 C 320.777344 172.660156 318.21875 175.167969 315.074219 175.960938 C 314.226562 176.175781 313.613281 177.363281 314.1875 178.132812 C 318.238281 183.5625 312.585938 189.6875 308.59375 193.109375 C 303.992188 197.058594 297.820312 200.347656 291.605469 198.8125 C 289.753906 198.359375 288.964844 201.210938 290.816406 201.667969 C 298.273438 203.507812 305.511719 199.738281 311 194.933594 C 313.683594 192.585938 316.253906 189.871094 317.617188 186.523438 C 318.910156 183.347656 318.851562 179.460938 316.746094 176.640625 C 316.449219 177.363281 316.15625 178.089844 315.859375 178.8125 C 320.0625 177.753906 323.601562 174.214844 324.386719 169.902344 C 325.210938 165.378906 323.171875 160.824219 319.414062 158.242188 C 319.296875 159.144531 319.179688 160.046875 319.0625 160.949219 C 325.835938 158.503906 327.496094 150.984375 327.023438 144.546875 C 326.773438 141.117188 326.496094 137.335938 324.808594 134.261719 C 323.328125 131.558594 320.394531 129.453125 317.210938 129.785156 C 317.683594 130.410156 318.160156 131.035156 318.636719 131.660156 C 321.03125 123.347656 316.832031 113.777344 309.003906 110.019531 C 309.230469 110.574219 309.457031 111.132812 309.683594 111.6875 C 312.433594 104.839844 312.957031 96.875 310.382812 89.882812 C 307.980469 83.351562 302.996094 78.136719 296.519531 75.535156 C 292.984375 74.117188 289.195312 73.707031 285.4375 74.265625 C 286.0625 74.742188 286.683594 75.214844 287.308594 75.691406 C 287.972656 68.308594 285.695312 60.777344 281.179688 54.910156 C 276.597656 48.953125 269.757812 45.019531 262.324219 43.917969 C 258.113281 43.296875 253.84375 43.519531 249.742188 44.675781 C 247.910156 45.191406 248.691406 48.046875 250.53125 47.53125 " fill-opacity="1" fill-rule="nonzero"/><path fill="#f03f72" d="M 61.511719 170.210938 C 52.355469 172.738281 50.308594 174.785156 47.78125 183.933594 C 45.25 174.785156 43.203125 172.738281 34.046875 170.210938 C 43.203125 167.683594 45.25 165.636719 47.78125 156.488281 C 50.308594 165.636719 52.355469 167.683594 61.511719 170.210938 " fill-opacity="1" fill-rule="nonzero"/><path fill="#f03f72" d="M 366.695312 93.816406 C 357.539062 96.34375 355.488281 98.390625 352.960938 107.539062 C 350.433594 98.390625 348.382812 96.34375 339.230469 93.816406 C 348.382812 91.289062 350.433594 89.242188 352.960938 80.09375 C 355.488281 89.242188 357.539062 91.289062 366.695312 93.816406 " fill-opacity="1" fill-rule="nonzero"/><path fill="#f03f72" d="M 52.746094 124.132812 C 47.816406 125.492188 46.714844 126.59375 45.351562 131.519531 C 43.992188 126.59375 42.886719 125.492188 37.957031 124.132812 C 42.886719 122.769531 43.992188 121.667969 45.351562 116.742188 C 46.714844 121.667969 47.816406 122.769531 52.746094 124.132812 " fill-opacity="1" fill-rule="nonzero"/><path fill="#f03f72" d="M 78.230469 189.613281 C 73.300781 190.972656 72.195312 192.074219 70.835938 197 C 69.472656 192.074219 68.371094 190.972656 63.441406 189.613281 C 68.371094 188.25 69.472656 187.148438 70.835938 182.222656 C 72.195312 187.148438 73.300781 188.25 78.230469 189.613281 " fill-opacity="1" fill-rule="nonzero"/><path fill="#f03f72" d="M 334.265625 69.566406 C 329.335938 70.925781 328.234375 72.027344 326.875 76.953125 C 325.511719 72.027344 324.410156 70.925781 319.476562 69.566406 C 324.410156 68.203125 325.511719 67.101562 326.875 62.175781 C 328.234375 67.101562 329.335938 68.203125 334.265625 69.566406 " fill-opacity="1" fill-rule="nonzero"/><path fill="#f03f72" d="M 340.941406 127.164062 C 336.011719 128.523438 334.910156 129.625 333.546875 134.550781 C 332.183594 129.625 331.082031 128.523438 326.152344 127.164062 C 331.082031 125.804688 332.183594 124.699219 333.546875 119.773438 C 334.910156 124.699219 336.011719 125.804688 340.941406 127.164062 " fill-opacity="1" fill-rule="nonzero"/></svg>