<svg xmlns="http://www.w3.org/2000/svg" version="1.1" xmlns:xlink="http://www.w3.org/1999/xlink" width="512" height="512" x="0" y="0" viewBox="0 0 64 64" style="enable-background:new 0 0 512 512" xml:space="preserve" class=""><g><g data-name="Layer 1"><path fill="#ffba17" d="M49 15a4 4 0 0 1-4-4V5H23a4 4 0 0 0-4 4v32.12a3.989 3.989 0 0 1 .973 1.475l1.054 2.81A4 4 0 0 0 24.772 48h14.456a4 4 0 0 0 3.745-2.596l1.054-2.809A4 4 0 0 1 47.772 40H55V15z" opacity="1" data-original="#ffba17" class=""></path><path fill="#231f20" d="M17.317 36.916a1 1 0 0 1-.32-1.947l1.435-.488a1 1 0 0 1 .642 1.895l-1.435.487a.999.999 0 0 1-.322.053zm-3.22-10.467 3.787-1.288a1 1 0 0 0-.644-1.893l-3.787 1.287a1 1 0 1 0 .644 1.894zm1.932 5.68 1.894-.644a1 1 0 0 0-.645-1.893l-1.893.644a1 1 0 0 0 .322 1.947 1.01 1.01 0 0 0 .322-.054z" opacity="1" data-original="#231f20" class=""></path><path fill="#ffba17" d="m13.132 23.608-5.68 1.932L13.7 12.853l1.932 5.68a4 4 0 0 1-2.5 5.075z" opacity="1" data-original="#ffba17" class=""></path><g fill="#231f20"><path d="M49 30H33a1 1 0 0 1 0-2h16a1 1 0 0 1 0 2zm-19-1a1 1 0 0 0-1-1h-2a1 1 0 0 0 0 2h2a1 1 0 0 0 1-1zm12 6a1 1 0 0 0-1-1h-4a1 1 0 0 0 0 2h4a1 1 0 0 0 1-1zm-8 0a1 1 0 0 0-1-1h-6a1 1 0 0 0 0 2h6a1 1 0 0 0 1-1zm5 6a1 1 0 0 0-1-1h-5a1 1 0 0 0 0 2h5a1 1 0 0 0 1-1zm-9 0a1 1 0 0 0-1-1h-2a1 1 0 0 0 0 2h2a1 1 0 0 0 1-1zm12-30a1 1 0 0 0-1-1h-7a1 1 0 0 0 0 2h7a1 1 0 0 0 1-1zm-11 0a1 1 0 0 0-1-1h-3a1 1 0 0 0 0 2h3a1 1 0 0 0 1-1zm14 6a1 1 0 0 0-1-1h-8a1 1 0 0 0 0 2h8a1 1 0 0 0 1-1zm-12 0a1 1 0 0 0-1-1h-5a1 1 0 0 0 0 2h5a1 1 0 0 0 1-1zm11 6a1 1 0 0 0-1-1H27a1 1 0 0 0 0 2h16a1 1 0 0 0 1-1zm6 0a1 1 0 0 0-1-1h-2a1 1 0 0 0 0 2h2a1 1 0 0 0 1-1z" fill="#231f20" opacity="1" data-original="#231f20" class=""></path><path d="M56 39.101V15a1 1 0 0 0-.293-.707l-10-10A1 1 0 0 0 45 4H23a5.006 5.006 0 0 0-5 5v1.334l-4.623 1.572a1 1 0 0 0-.575.505L6.554 25.098a.997.997 0 0 0-.05.764L10.973 39H9a5.006 5.006 0 0 0-5 5v14a5.006 5.006 0 0 0 5 5h46a5.006 5.006 0 0 0 5-5V44a5.008 5.008 0 0 0-4-4.899zM46 7.414 52.586 14H49a3.003 3.003 0 0 1-3-3zM23 6h21v5a5.006 5.006 0 0 0 5 5h5v23h-6.228a5.026 5.026 0 0 0-4.682 3.244v.001l-1.053 2.808A3.013 3.013 0 0 1 39.227 47H24.773a3.014 3.014 0 0 1-2.81-1.946l-1.053-2.81A4.946 4.946 0 0 0 20 40.74V9a3.003 3.003 0 0 1 3-3zm-9.47 9.46 1.155 3.396a3 3 0 0 1-1.875 3.806l-3.395 1.154zM8.72 26.165l4.734-1.61a4.997 4.997 0 0 0 3.123-6.343l-1.608-4.734L18 12.448v26.894A4.942 4.942 0 0 0 16.228 39h-3.144zM58 58a3.003 3.003 0 0 1-3 3H9a3.003 3.003 0 0 1-3-3V44a3.003 3.003 0 0 1 3-3h7.228a3.014 3.014 0 0 1 2.81 1.946l1.052 2.81A5.026 5.026 0 0 0 24.772 49h14.456a5.025 5.025 0 0 0 4.682-3.245l1.053-2.809A3.015 3.015 0 0 1 47.773 41H55a3.003 3.003 0 0 1 3 3zm-20-6H26a3 3 0 0 0 0 6h12a3 3 0 0 0 0-6zm0 4H26a1 1 0 0 1 0-2h12a1 1 0 0 1 0 2zM7.63 6.358l2.055-.881a.519.519 0 0 0 0-.954l-2.055-.88a.519.519 0 0 1-.272-.273l-.881-2.056a.519.519 0 0 0-.954 0l-.88 2.056a.519.519 0 0 1-.273.272l-2.056.881a.519.519 0 0 0 0 .954l2.056.88a.519.519 0 0 1 .272.273l.881 2.056a.519.519 0 0 0 .954 0l.88-2.056a.519.519 0 0 1 .273-.272zM50.815 4.679l1.028-.44a.26.26 0 0 0 0-.477l-1.028-.44a.26.26 0 0 1-.136-.136l-.44-1.028a.26.26 0 0 0-.477 0l-.44 1.028a.26.26 0 0 1-.136.136l-1.028.44a.26.26 0 0 0 0 .477l1.028.44a.26.26 0 0 1 .136.136l.44 1.028a.26.26 0 0 0 .477 0l.44-1.028a.26.26 0 0 1 .136-.136z" fill="#231f20" opacity="1" data-original="#231f20" class=""></path></g><path fill="#ffba17" d="m17.815 4.679 1.028-.44a.26.26 0 0 0 0-.477l-1.028-.44a.26.26 0 0 1-.136-.136l-.44-1.028a.26.26 0 0 0-.477 0l-.44 1.028a.26.26 0 0 1-.136.136l-1.028.44a.26.26 0 0 0 0 .477l1.028.44a.26.26 0 0 1 .136.136l.44 1.028a.26.26 0 0 0 .477 0l.44-1.028a.26.26 0 0 1 .136-.136z" opacity="1" data-original="#ffba17" class=""></path><path fill="#231f20" d="m6.703 20.018 1.541-.66a.39.39 0 0 0 0-.716l-1.541-.66a.389.389 0 0 1-.205-.205l-.66-1.541a.39.39 0 0 0-.716 0l-.66 1.541a.39.39 0 0 1-.205.205l-1.541.66a.39.39 0 0 0 0 .716l1.541.66a.39.39 0 0 1 .205.205l.66 1.541a.39.39 0 0 0 .716 0l.66-1.541a.389.389 0 0 1 .205-.205z" opacity="1" data-original="#231f20" class=""></path><path fill="#ffba17" d="m60.223 8.018 1.541-.66a.39.39 0 0 0 0-.716l-1.541-.66a.389.389 0 0 1-.205-.205l-.66-1.541a.39.39 0 0 0-.716 0l-.66 1.541a.389.389 0 0 1-.205.205l-1.541.66a.39.39 0 0 0 0 .716l1.541.66a.389.389 0 0 1 .205.205l.66 1.541a.39.39 0 0 0 .716 0l.66-1.541a.389.389 0 0 1 .205-.205z" opacity="1" data-original="#ffba17" class=""></path><circle cx="9.5" cy="12.5" r="1.5" fill="#ffba17" opacity="1" data-original="#ffba17" class=""></circle><circle cx="59.5" cy="15.5" r="1.5" fill="#231f20" opacity="1" data-original="#231f20" class=""></circle></g></g></svg>
