<svg xmlns="http://www.w3.org/2000/svg" xmlns:xlink="http://www.w3.org/1999/xlink" width="940" zoomAndPan="magnify" viewBox="0 0 705 374.999991" height="500" preserveAspectRatio="xMidYMid meet" version="1.0"><defs><g/><clipPath id="762173b87f"><path d="M 10.8125 213 L 164 213 L 164 338.554688 L 10.8125 338.554688 Z M 10.8125 213 " clip-rule="nonzero"/></clipPath><clipPath id="b44b5c21ee"><path d="M 482 149 L 554 149 L 554 240 L 482 240 Z M 482 149 " clip-rule="nonzero"/></clipPath><clipPath id="8fabef77fa"><path d="M 573.144531 169.628906 L 506.589844 251.808594 L 477.449219 228.207031 L 544.003906 146.027344 Z M 573.144531 169.628906 " clip-rule="nonzero"/></clipPath><clipPath id="7a44a1ade3"><path d="M 573.144531 169.628906 L 506.589844 251.808594 L 477.449219 228.207031 L 544.003906 146.027344 Z M 573.144531 169.628906 " clip-rule="nonzero"/></clipPath></defs><path fill="#000000" d="M 693.699219 163.011719 C 693.464844 121.539062 680.859375 36.183594 608.746094 39.761719 L 102.875 55.5625 C 102.875 55.5625 36.792969 65.183594 35.925781 127.945312 L 35.488281 159.980469 C 35.25 218.144531 40.816406 283.890625 99.6875 286.695312 C 99.695312 286.695312 99.699219 286.695312 99.707031 286.695312 L 515.558594 306.480469 L 515.5625 306.480469 L 552.242188 307.710938 C 644.660156 308.984375 665.558594 279.851562 675.578125 255.023438 C 683.34375 235.769531 693.925781 202.808594 693.699219 163.011719 Z M 693.699219 163.011719 " fill-opacity="1" fill-rule="nonzero"/><path fill="#ffffff" d="M 666.992188 162.464844 C 666.066406 116.609375 650.886719 49.589844 590.25 49.589844 L 108.597656 70.074219 C 108.597656 70.074219 45.777344 79.542969 45.777344 136.019531 L 45.777344 164.839844 C 46.3125 217.164062 52.480469 276.246094 108.597656 278.035156 C 108.605469 278.039062 108.609375 278.039062 108.617188 278.039062 L 548.929688 292.082031 C 569.699219 292.371094 632.292969 288.226562 650.480469 249.402344 C 658.84375 231.550781 667.753906 199.96875 666.992188 162.464844 Z M 666.992188 162.464844 " fill-opacity="1" fill-rule="nonzero"/><path fill="#ffffff" d="M 163.820312 247.625 L 22.996094 326.167969 L 83.199219 213.222656 Z M 163.820312 247.625 " fill-opacity="1" fill-rule="nonzero"/><g clip-path="url(#762173b87f)"><path fill="#000000" d="M 18.730469 323.898438 L 26.386719 309.847656 L 34.125 295.851562 L 38.042969 288.875 L 41.976562 281.910156 L 45.945312 274.957031 L 49.9375 268.015625 L 53.953125 261.089844 L 58.003906 254.1875 L 62.097656 247.300781 L 66.214844 240.433594 C 67.589844 238.144531 68.984375 235.867188 70.378906 233.589844 L 74.582031 226.765625 C 75.996094 224.496094 77.410156 222.230469 78.851562 219.972656 C 80.296875 217.726562 81.71875 215.460938 83.199219 213.226562 C 82.167969 215.699219 81.078125 218.136719 80.015625 220.597656 C 78.941406 223.046875 77.851562 225.484375 76.757812 227.925781 L 73.441406 235.21875 C 72.328125 237.648438 71.210938 240.078125 70.074219 242.488281 L 66.671875 249.738281 L 63.234375 256.976562 L 59.765625 264.191406 L 56.253906 271.382812 L 52.722656 278.566406 L 49.160156 285.730469 L 45.570312 292.878906 L 41.960938 300.019531 L 34.78125 314.015625 C 35.925781 313.378906 37.078125 312.742188 38.226562 312.109375 L 47.042969 307.226562 C 49.976562 305.589844 52.9375 304.003906 55.882812 302.386719 L 64.738281 297.566406 L 73.621094 292.800781 C 76.574219 291.199219 79.546875 289.636719 82.519531 288.066406 C 85.492188 286.496094 88.449219 284.910156 91.433594 283.363281 L 100.375 278.703125 L 109.339844 274.09375 C 112.328125 272.546875 115.339844 271.050781 118.339844 269.527344 C 121.332031 268 124.347656 266.511719 127.359375 265.011719 C 130.363281 263.5 133.390625 262.035156 136.410156 260.546875 L 145.496094 256.148438 C 148.53125 254.699219 151.574219 253.253906 154.628906 251.832031 C 157.691406 250.417969 160.738281 248.992188 163.820312 247.625 C 161.039062 249.527344 158.21875 251.371094 155.414062 253.238281 C 152.597656 255.089844 149.773438 256.914062 146.941406 258.738281 L 138.425781 264.160156 C 135.574219 265.945312 132.734375 267.75 129.875 269.515625 C 127.015625 271.285156 124.164062 273.066406 121.292969 274.816406 C 118.421875 276.566406 115.5625 278.339844 112.679688 280.070312 L 104.046875 285.277344 L 95.386719 290.4375 C 92.5 292.164062 89.59375 293.847656 86.699219 295.554688 C 83.796875 297.257812 80.910156 298.964844 77.996094 300.640625 L 69.269531 305.6875 L 60.519531 310.6875 C 57.597656 312.347656 54.6875 314.035156 51.757812 315.667969 L 42.972656 320.605469 C 40.050781 322.257812 37.109375 323.894531 34.167969 325.515625 L 25.351562 330.394531 L 10.8125 338.433594 Z M 18.730469 323.898438 " fill-opacity="1" fill-rule="nonzero"/></g><g fill="#000000" fill-opacity="1"><g transform="translate(83.477501, 135.440665)"><g><path d="M 8.0625 -9.265625 C 7.40625 -9.265625 6.921875 -8.984375 6.609375 -8.421875 C 6.304688 -7.859375 6.113281 -7.171875 6.03125 -6.359375 C 5.945312 -5.546875 5.914062 -4.757812 5.9375 -4 C 5.96875 -3.25 6 -2.6875 6.03125 -2.3125 C 6.082031 -1.925781 6.113281 -1.519531 6.125 -1.09375 C 6.144531 -0.664062 5.9375 -0.351562 5.5 -0.15625 C 5.207031 -0.0507812 4.863281 -0.03125 4.46875 -0.09375 C 4.082031 -0.164062 3.726562 -0.1875 3.40625 -0.15625 C 3.21875 -0.15625 2.878906 -0.132812 2.390625 -0.09375 C 1.898438 -0.0625 1.425781 -0.0625 0.96875 -0.09375 C 0.507812 -0.132812 0.226562 -0.265625 0.125 -0.484375 C 0.09375 -0.566406 0.078125 -0.71875 0.078125 -0.9375 C 0.078125 -2.445312 0.078125 -3.957031 0.078125 -5.46875 C 0.078125 -6.976562 0.078125 -8.472656 0.078125 -9.953125 C 0.078125 -12.816406 0.078125 -15.6875 0.078125 -18.5625 C 0.078125 -21.4375 0.0664062 -24.304688 0.046875 -27.171875 C 0.046875 -27.703125 0.078125 -28.25 0.140625 -28.8125 C 0.210938 -29.382812 0.570312 -29.765625 1.21875 -29.953125 C 1.757812 -30.117188 2.328125 -30.140625 2.921875 -30.015625 C 3.515625 -29.898438 4.09375 -29.828125 4.65625 -29.796875 C 6.675781 -29.691406 8.695312 -29.601562 10.71875 -29.53125 C 12.75 -29.46875 14.789062 -29.3125 16.84375 -29.0625 C 17.300781 -29.007812 17.75 -28.925781 18.1875 -28.8125 C 18.632812 -28.707031 19.078125 -28.5625 19.515625 -28.375 C 21.054688 -27.726562 22.140625 -26.703125 22.765625 -25.296875 C 23.398438 -23.898438 23.773438 -22.414062 23.890625 -20.84375 C 23.941406 -19.769531 23.875 -18.695312 23.6875 -17.625 C 23.5 -16.5625 23.144531 -15.554688 22.625 -14.609375 C 22.351562 -14.148438 22.054688 -13.703125 21.734375 -13.265625 C 21.410156 -12.835938 21.046875 -12.4375 20.640625 -12.0625 C 20.484375 -11.90625 20.242188 -11.71875 19.921875 -11.5 C 19.597656 -11.28125 19.320312 -11.046875 19.09375 -10.796875 C 18.863281 -10.554688 18.757812 -10.289062 18.78125 -10 C 18.8125 -9.894531 18.851562 -9.785156 18.90625 -9.671875 C 18.957031 -9.566406 19.007812 -9.445312 19.0625 -9.3125 C 19.71875 -8.34375 20.421875 -7.40625 21.171875 -6.5 C 21.929688 -5.59375 22.644531 -4.664062 23.3125 -3.71875 C 23.613281 -3.289062 23.929688 -2.859375 24.265625 -2.421875 C 24.609375 -1.992188 24.875 -1.535156 25.0625 -1.046875 C 25.113281 -0.910156 25.164062 -0.75 25.21875 -0.5625 C 25.269531 -0.375 25.203125 -0.226562 25.015625 -0.125 C 24.929688 -0.09375 24.8125 -0.078125 24.65625 -0.078125 C 24.03125 -0.078125 23.40625 -0.0703125 22.78125 -0.0625 C 22.164062 -0.0507812 21.550781 -0.046875 20.9375 -0.046875 C 20.3125 -0.046875 19.679688 -0.0546875 19.046875 -0.078125 C 18.410156 -0.109375 17.851562 -0.351562 17.375 -0.8125 C 17.019531 -1.164062 16.71875 -1.5625 16.46875 -2 C 16.226562 -2.445312 15.960938 -2.875 15.671875 -3.28125 C 15.148438 -4.0625 14.613281 -4.835938 14.0625 -5.609375 C 13.507812 -6.378906 12.925781 -7.128906 12.3125 -7.859375 C 11.550781 -8.660156 10.160156 -9.128906 8.140625 -9.265625 C 8.109375 -9.265625 8.09375 -9.265625 8.09375 -9.265625 C 8.09375 -9.265625 8.082031 -9.265625 8.0625 -9.265625 Z M 6.390625 -16.640625 C 6.523438 -16.046875 6.867188 -15.601562 7.421875 -15.3125 C 7.984375 -15.03125 8.632812 -14.859375 9.375 -14.796875 C 10.113281 -14.734375 10.835938 -14.734375 11.546875 -14.796875 C 12.265625 -14.859375 12.84375 -14.945312 13.28125 -15.0625 C 14.46875 -15.351562 15.5 -15.910156 16.375 -16.734375 C 17.25 -17.554688 17.6875 -18.617188 17.6875 -19.921875 C 17.6875 -20.890625 17.453125 -21.695312 16.984375 -22.34375 C 16.515625 -22.988281 15.898438 -23.5 15.140625 -23.875 C 14.378906 -24.257812 13.5625 -24.507812 12.6875 -24.625 C 11.8125 -24.75 10.96875 -24.773438 10.15625 -24.703125 C 9.8125 -24.671875 9.367188 -24.613281 8.828125 -24.53125 C 8.285156 -24.445312 7.789062 -24.304688 7.34375 -24.109375 C 6.90625 -23.910156 6.628906 -23.578125 6.515625 -23.109375 C 6.003906 -20.929688 5.960938 -18.773438 6.390625 -16.640625 Z M 6.390625 -16.640625 "/></g></g></g><g fill="#000000" fill-opacity="1"><g transform="translate(112.781562, 135.440665)"><g><path d="M 22.71875 -10.28125 C 22.382812 -10.007812 21.898438 -9.828125 21.265625 -9.734375 C 20.640625 -9.640625 19.96875 -9.59375 19.25 -9.59375 C 18.53125 -9.59375 17.859375 -9.601562 17.234375 -9.625 C 16.617188 -9.65625 16.148438 -9.671875 15.828125 -9.671875 C 14.421875 -9.648438 13.03125 -9.628906 11.65625 -9.609375 C 10.28125 -9.597656 8.890625 -9.59375 7.484375 -9.59375 C 7.054688 -9.59375 6.78125 -9.457031 6.65625 -9.1875 C 6.539062 -8.914062 6.53125 -8.609375 6.625 -8.265625 C 6.71875 -7.929688 6.84375 -7.644531 7 -7.40625 C 7.570312 -6.675781 8.28125 -6.085938 9.125 -5.640625 C 9.976562 -5.203125 10.863281 -4.925781 11.78125 -4.8125 C 12.800781 -4.707031 13.65625 -4.847656 14.34375 -5.234375 C 15.039062 -5.628906 15.816406 -6.046875 16.671875 -6.484375 C 17.078125 -6.691406 17.351562 -6.820312 17.5 -6.875 C 17.65625 -6.9375 17.910156 -6.816406 18.265625 -6.515625 C 18.640625 -6.222656 18.992188 -5.816406 19.328125 -5.296875 C 19.671875 -4.785156 20.003906 -4.34375 20.328125 -3.96875 C 20.671875 -3.507812 20.65625 -3.078125 20.28125 -2.671875 C 19.90625 -2.265625 19.328125 -1.890625 18.546875 -1.546875 C 17.765625 -1.210938 16.910156 -0.925781 15.984375 -0.6875 C 15.066406 -0.445312 14.238281 -0.257812 13.5 -0.125 C 12.757812 0.0078125 12.253906 0.078125 11.984375 0.078125 C 10.171875 0.078125 8.503906 -0.273438 6.984375 -0.984375 C 5.460938 -1.703125 4.160156 -2.675781 3.078125 -3.90625 C 1.992188 -5.132812 1.179688 -6.515625 0.640625 -8.046875 C 0.109375 -9.585938 -0.0976562 -11.203125 0.015625 -12.890625 C 0.140625 -14.578125 0.660156 -16.21875 1.578125 -17.8125 C 2.273438 -19.050781 3.210938 -20.101562 4.390625 -20.96875 C 5.566406 -21.832031 6.863281 -22.472656 8.28125 -22.890625 C 9.695312 -23.304688 11.144531 -23.492188 12.625 -23.453125 C 14.113281 -23.421875 15.523438 -23.125 16.859375 -22.5625 C 18.191406 -22.007812 19.359375 -21.179688 20.359375 -20.078125 C 20.816406 -19.566406 21.253906 -18.925781 21.671875 -18.15625 C 22.097656 -17.382812 22.457031 -16.550781 22.75 -15.65625 C 23.050781 -14.769531 23.234375 -13.898438 23.296875 -13.046875 C 23.367188 -12.203125 23.28125 -11.429688 23.03125 -10.734375 C 22.976562 -10.566406 22.875 -10.414062 22.71875 -10.28125 Z M 16.59375 -14.5 C 16.675781 -14.6875 16.703125 -14.882812 16.671875 -15.09375 C 16.648438 -15.425781 16.503906 -15.738281 16.234375 -16.03125 C 15.503906 -17.050781 14.554688 -17.804688 13.390625 -18.296875 C 12.234375 -18.785156 11.050781 -18.757812 9.84375 -18.21875 C 9.300781 -17.976562 8.789062 -17.664062 8.3125 -17.28125 C 7.84375 -16.90625 7.40625 -16.503906 7 -16.078125 C 6.894531 -15.960938 6.785156 -15.835938 6.671875 -15.703125 C 6.566406 -15.566406 6.488281 -15.421875 6.4375 -15.265625 C 6.332031 -14.941406 6.382812 -14.644531 6.59375 -14.375 C 6.8125 -14.101562 7.082031 -13.96875 7.40625 -13.96875 L 15.671875 -13.96875 C 16.128906 -13.96875 16.4375 -14.144531 16.59375 -14.5 Z M 16.59375 -14.5 "/></g></g></g><g fill="#000000" fill-opacity="1"><g transform="translate(140.142806, 135.440665)"><g><path d="M 20.078125 -2.59375 C 18.484375 -1.238281 16.59375 -0.445312 14.40625 -0.21875 C 12.226562 0.0078125 10.054688 -0.398438 7.890625 -1.453125 C 7.785156 -1.535156 7.640625 -1.578125 7.453125 -1.578125 C 7.265625 -1.578125 7.070312 -1.523438 6.875 -1.421875 C 6.550781 -1.234375 6.390625 -0.9375 6.390625 -0.53125 C 6.390625 -0.125 6.390625 0.28125 6.390625 0.6875 C 6.390625 1.09375 6.390625 1.5 6.390625 1.90625 C 6.390625 2.175781 6.414062 2.613281 6.46875 3.21875 C 6.53125 3.820312 6.582031 4.472656 6.625 5.171875 C 6.664062 5.878906 6.65625 6.507812 6.59375 7.0625 C 6.539062 7.613281 6.394531 7.972656 6.15625 8.140625 C 6.039062 8.191406 5.914062 8.226562 5.78125 8.25 C 5.65625 8.28125 5.523438 8.3125 5.390625 8.34375 C 4.679688 8.425781 3.957031 8.515625 3.21875 8.609375 C 2.476562 8.703125 1.820312 8.632812 1.25 8.40625 C 0.6875 8.175781 0.335938 7.613281 0.203125 6.71875 C 0.015625 5.125 -0.0234375 3.535156 0.078125 1.953125 C 0.191406 0.378906 0.25 -1.1875 0.25 -2.75 C 0.25 -5.800781 0.253906 -8.898438 0.265625 -12.046875 C 0.273438 -15.191406 0.253906 -18.316406 0.203125 -21.421875 C 0.203125 -21.984375 0.234375 -22.382812 0.296875 -22.625 C 0.367188 -22.875 0.445312 -23.035156 0.53125 -23.109375 C 0.769531 -23.359375 1.164062 -23.4375 1.71875 -23.34375 C 2.269531 -23.25 2.835938 -23.113281 3.421875 -22.9375 C 4.003906 -22.757812 4.429688 -22.644531 4.703125 -22.59375 C 5.804688 -22.40625 6.84375 -22.390625 7.8125 -22.546875 C 8.78125 -22.710938 9.753906 -22.914062 10.734375 -23.15625 C 11.722656 -23.394531 12.757812 -23.515625 13.84375 -23.515625 C 15.382812 -23.515625 16.773438 -23.195312 18.015625 -22.5625 C 19.253906 -21.9375 20.304688 -21.078125 21.171875 -19.984375 C 22.035156 -18.890625 22.71875 -17.664062 23.21875 -16.3125 C 23.71875 -14.96875 23.992188 -13.570312 24.046875 -12.125 C 24.097656 -10.675781 23.921875 -9.28125 23.515625 -7.9375 C 23.171875 -6.800781 22.707031 -5.785156 22.125 -4.890625 C 21.539062 -4.003906 20.859375 -3.238281 20.078125 -2.59375 Z M 11.984375 -4.90625 C 12.035156 -4.90625 12.070312 -4.90625 12.09375 -4.90625 C 12.125 -4.90625 12.15625 -4.90625 12.1875 -4.90625 C 13.289062 -4.957031 14.273438 -5.289062 15.140625 -5.90625 C 16.003906 -6.53125 16.691406 -7.351562 17.203125 -8.375 C 17.710938 -9.40625 17.957031 -10.539062 17.9375 -11.78125 C 17.9375 -13.070312 17.671875 -14.226562 17.140625 -15.25 C 16.617188 -16.28125 15.914062 -17.097656 15.03125 -17.703125 C 14.15625 -18.316406 13.164062 -18.625 12.0625 -18.625 L 11.90625 -18.625 C 10.820312 -18.59375 9.847656 -18.257812 8.984375 -17.625 C 8.117188 -16.988281 7.441406 -16.140625 6.953125 -15.078125 C 6.472656 -14.015625 6.25 -12.820312 6.28125 -11.5 C 6.300781 -10.257812 6.5625 -9.140625 7.0625 -8.140625 C 7.5625 -7.140625 8.242188 -6.347656 9.109375 -5.765625 C 9.972656 -5.191406 10.929688 -4.90625 11.984375 -4.90625 Z M 11.984375 -4.90625 "/></g></g></g><g fill="#000000" fill-opacity="1"><g transform="translate(168.232607, 135.440665)"><g><path d="M 0.046875 -11.734375 C 0.015625 -13.242188 0.304688 -14.75 0.921875 -16.25 C 1.546875 -17.75 2.410156 -19.066406 3.515625 -20.203125 C 4.566406 -21.285156 5.769531 -22.109375 7.125 -22.671875 C 8.476562 -23.234375 9.867188 -23.515625 11.296875 -23.515625 C 11.429688 -23.515625 11.570312 -23.515625 11.71875 -23.515625 C 11.863281 -23.515625 12.003906 -23.515625 12.140625 -23.515625 C 12.140625 -23.515625 12.144531 -23.515625 12.15625 -23.515625 C 12.175781 -23.515625 12.1875 -23.515625 12.1875 -23.515625 C 14.53125 -23.515625 16.597656 -23.03125 18.390625 -22.0625 C 20.191406 -21.09375 21.601562 -19.742188 22.625 -18.015625 C 23.65625 -16.285156 24.171875 -14.289062 24.171875 -12.03125 C 24.171875 -8.488281 23.0625 -5.613281 20.84375 -3.40625 C 19.769531 -2.320312 18.484375 -1.488281 16.984375 -0.90625 C 15.484375 -0.332031 13.859375 -0.046875 12.109375 -0.046875 C 10.429688 -0.046875 8.867188 -0.347656 7.421875 -0.953125 C 5.984375 -1.554688 4.71875 -2.390625 3.625 -3.453125 C 2.53125 -4.523438 1.664062 -5.769531 1.03125 -7.1875 C 0.394531 -8.601562 0.0664062 -10.117188 0.046875 -11.734375 Z M 11.984375 -18.703125 C 11.035156 -18.703125 10.113281 -18.394531 9.21875 -17.78125 C 8.332031 -17.175781 7.597656 -16.394531 7.015625 -15.4375 C 6.441406 -14.476562 6.140625 -13.472656 6.109375 -12.421875 C 6.085938 -11.265625 6.273438 -10.144531 6.671875 -9.0625 C 7.078125 -7.988281 7.695312 -7.085938 8.53125 -6.359375 C 9.375 -5.628906 10.414062 -5.195312 11.65625 -5.0625 C 13.03125 -4.925781 14.191406 -5.140625 15.140625 -5.703125 C 16.085938 -6.273438 16.816406 -7.050781 17.328125 -8.03125 C 17.835938 -9.019531 18.117188 -10.097656 18.171875 -11.265625 C 18.234375 -12.441406 18.0625 -13.570312 17.65625 -14.65625 C 17.25 -15.738281 16.597656 -16.648438 15.703125 -17.390625 C 14.816406 -18.128906 13.6875 -18.566406 12.3125 -18.703125 C 12.25 -18.703125 12.191406 -18.703125 12.140625 -18.703125 C 12.085938 -18.703125 12.035156 -18.703125 11.984375 -18.703125 Z M 11.984375 -18.703125 "/></g></g></g><g fill="#000000" fill-opacity="1"><g transform="translate(196.443836, 135.440665)"><g><path d="M 13.921875 -1.046875 C 12.441406 -0.347656 10.945312 0 9.4375 0 C 8.570312 0 7.617188 -0.117188 6.578125 -0.359375 C 5.535156 -0.609375 4.519531 -0.921875 3.53125 -1.296875 C 2.550781 -1.671875 1.6875 -2.078125 0.9375 -2.515625 C 0.363281 -2.835938 0.0625 -3.164062 0.03125 -3.5 C 0.0078125 -3.84375 0.132812 -4.191406 0.40625 -4.546875 C 0.675781 -4.910156 0.929688 -5.3125 1.171875 -5.75 C 1.253906 -5.882812 1.34375 -6.007812 1.4375 -6.125 C 1.53125 -6.25 1.628906 -6.351562 1.734375 -6.4375 C 2.035156 -6.65625 2.347656 -6.722656 2.671875 -6.640625 C 2.992188 -6.554688 3.3125 -6.421875 3.625 -6.234375 C 3.9375 -6.046875 4.210938 -5.882812 4.453125 -5.75 C 5.285156 -5.289062 6.203125 -4.953125 7.203125 -4.734375 C 8.203125 -4.515625 9.175781 -4.4375 10.125 -4.5 C 10.820312 -4.550781 11.46875 -4.703125 12.0625 -4.953125 C 12.65625 -5.210938 13.003906 -5.570312 13.109375 -6.03125 C 13.222656 -6.488281 12.898438 -7.03125 12.140625 -7.65625 C 11.140625 -8.4375 10.078125 -9.082031 8.953125 -9.59375 C 7.835938 -10.101562 6.6875 -10.550781 5.5 -10.9375 C 4.394531 -11.28125 3.503906 -11.800781 2.828125 -12.5 C 2.160156 -13.207031 1.679688 -13.992188 1.390625 -14.859375 C 1.109375 -15.722656 1.023438 -16.5625 1.140625 -17.375 C 1.273438 -18.226562 1.609375 -19.046875 2.140625 -19.828125 C 2.679688 -20.617188 3.359375 -21.3125 4.171875 -21.90625 C 4.984375 -22.5 5.859375 -22.898438 6.796875 -23.109375 C 7.335938 -23.242188 7.863281 -23.34375 8.375 -23.40625 C 8.894531 -23.476562 9.410156 -23.515625 9.921875 -23.515625 C 10.890625 -23.515625 11.84375 -23.398438 12.78125 -23.171875 C 13.726562 -22.941406 14.632812 -22.625 15.5 -22.21875 C 16.28125 -21.875 16.835938 -21.546875 17.171875 -21.234375 C 17.515625 -20.921875 17.640625 -20.546875 17.546875 -20.109375 C 17.453125 -19.679688 17.132812 -19.078125 16.59375 -18.296875 C 16.1875 -17.703125 15.726562 -17.367188 15.21875 -17.296875 C 14.707031 -17.234375 14.15625 -17.3125 13.5625 -17.53125 C 12.96875 -17.75 12.363281 -18.007812 11.75 -18.3125 C 11.144531 -18.625 10.550781 -18.890625 9.96875 -19.109375 C 9.394531 -19.328125 8.863281 -19.394531 8.375 -19.3125 C 7.894531 -19.226562 7.460938 -18.890625 7.078125 -18.296875 C 6.734375 -17.703125 6.632812 -17.179688 6.78125 -16.734375 C 6.925781 -16.296875 7.226562 -15.910156 7.6875 -15.578125 C 8.144531 -15.253906 8.675781 -14.984375 9.28125 -14.765625 C 9.894531 -14.554688 10.484375 -14.367188 11.046875 -14.203125 C 11.617188 -14.046875 12.078125 -13.898438 12.421875 -13.765625 C 13.453125 -13.390625 14.453125 -12.929688 15.421875 -12.390625 C 16.390625 -11.847656 17.171875 -11.09375 17.765625 -10.125 C 18.578125 -8.769531 18.867188 -7.503906 18.640625 -6.328125 C 18.410156 -5.160156 17.863281 -4.125 17 -3.21875 C 16.132812 -2.3125 15.109375 -1.585938 13.921875 -1.046875 Z M 13.921875 -1.046875 "/></g></g></g><g fill="#000000" fill-opacity="1"><g transform="translate(219.190913, 135.440665)"><g><path d="M 1.53125 -25.5 C 0.9375 -25.882812 0.503906 -26.421875 0.234375 -27.109375 C -0.0234375 -27.796875 -0.0351562 -28.539062 0.203125 -29.34375 C 0.660156 -30.9375 1.738281 -31.765625 3.4375 -31.828125 L 3.515625 -31.828125 C 4.359375 -31.828125 5.0625 -31.601562 5.625 -31.15625 C 6.195312 -30.707031 6.578125 -30.09375 6.765625 -29.3125 C 7.003906 -28.34375 6.90625 -27.453125 6.46875 -26.640625 C 6.039062 -25.828125 5.316406 -25.300781 4.296875 -25.0625 C 3.773438 -24.945312 3.28125 -24.929688 2.8125 -25.015625 C 2.34375 -25.097656 1.914062 -25.257812 1.53125 -25.5 Z M 0.96875 -21.453125 C 1.34375 -21.703125 1.882812 -21.8125 2.59375 -21.78125 C 3 -21.78125 3.441406 -21.789062 3.921875 -21.8125 C 4.410156 -21.84375 4.863281 -21.796875 5.28125 -21.671875 C 5.695312 -21.554688 5.972656 -21.28125 6.109375 -20.84375 C 6.359375 -20.175781 6.441406 -19.363281 6.359375 -18.40625 C 6.273438 -17.445312 6.234375 -16.613281 6.234375 -15.90625 C 6.265625 -14.257812 6.28125 -12.625 6.28125 -11 C 6.28125 -9.382812 6.289062 -7.753906 6.3125 -6.109375 C 6.3125 -5.835938 6.34375 -5.382812 6.40625 -4.75 C 6.476562 -4.125 6.519531 -3.445312 6.53125 -2.71875 C 6.550781 -1.988281 6.476562 -1.363281 6.3125 -0.84375 C 6.15625 -0.332031 5.832031 -0.0664062 5.34375 -0.046875 C 4.71875 -0.015625 4.066406 0.00390625 3.390625 0.015625 C 2.722656 0.0351562 2.078125 0.00390625 1.453125 -0.078125 C 1.023438 -0.128906 0.726562 -0.363281 0.5625 -0.78125 C 0.40625 -1.207031 0.316406 -1.71875 0.296875 -2.3125 C 0.285156 -2.90625 0.304688 -3.46875 0.359375 -4 C 0.421875 -4.539062 0.453125 -4.960938 0.453125 -5.265625 C 0.421875 -6.367188 0.394531 -7.476562 0.375 -8.59375 C 0.363281 -9.71875 0.359375 -10.832031 0.359375 -11.9375 C 0.335938 -12.882812 0.328125 -13.828125 0.328125 -14.765625 C 0.328125 -15.710938 0.3125 -16.644531 0.28125 -17.5625 C 0.28125 -18.351562 0.265625 -19.113281 0.234375 -19.84375 C 0.210938 -20.570312 0.457031 -21.109375 0.96875 -21.453125 Z M 0.96875 -21.453125 "/></g></g></g><g fill="#000000" fill-opacity="1"><g transform="translate(230.159698, 135.440665)"><g><path d="M 6.5625 -1.046875 C 5.070312 -1.910156 4.09375 -3.054688 3.625 -4.484375 C 3.15625 -5.921875 2.929688 -7.445312 2.953125 -9.0625 C 2.984375 -10.007812 2.988281 -10.953125 2.96875 -11.890625 C 2.957031 -12.835938 2.953125 -13.773438 2.953125 -14.703125 C 2.953125 -15.347656 2.957031 -16 2.96875 -16.65625 C 2.988281 -17.320312 2.742188 -17.910156 2.234375 -18.421875 C 1.960938 -18.710938 1.625 -18.90625 1.21875 -19 C 0.8125 -19.101562 0.515625 -19.351562 0.328125 -19.75 C 0.242188 -19.945312 0.1875 -20.140625 0.15625 -20.328125 C 0.132812 -20.515625 0.109375 -20.703125 0.078125 -20.890625 C 0.0546875 -21.316406 0.0546875 -21.738281 0.078125 -22.15625 C 0.109375 -22.582031 0.285156 -22.957031 0.609375 -23.28125 C 0.878906 -23.519531 1.195312 -23.671875 1.5625 -23.734375 C 1.925781 -23.804688 2.226562 -23.992188 2.46875 -24.296875 C 2.925781 -24.828125 3.15625 -25.414062 3.15625 -26.0625 C 3.15625 -26.71875 3.128906 -27.34375 3.078125 -27.9375 C 3.023438 -28.394531 2.988281 -28.765625 2.96875 -29.046875 C 2.957031 -29.328125 3.171875 -29.59375 3.609375 -29.84375 C 3.929688 -30.03125 4.34375 -30.125 4.84375 -30.125 C 5.34375 -30.125 5.835938 -30.09375 6.328125 -30.03125 C 6.828125 -29.976562 7.253906 -29.925781 7.609375 -29.875 C 8.304688 -29.789062 8.679688 -29.523438 8.734375 -29.078125 C 8.796875 -28.640625 8.800781 -28.132812 8.75 -27.5625 C 8.632812 -26 8.914062 -24.84375 9.59375 -24.09375 C 9.914062 -23.738281 10.28125 -23.523438 10.6875 -23.453125 C 11.09375 -23.390625 11.503906 -23.367188 11.921875 -23.390625 C 12.335938 -23.421875 12.734375 -23.421875 13.109375 -23.390625 C 13.492188 -23.367188 13.820312 -23.222656 14.09375 -22.953125 C 14.382812 -22.660156 14.507812 -22.207031 14.46875 -21.59375 C 14.425781 -20.988281 14.378906 -20.5 14.328125 -20.125 C 14.273438 -19.601562 14.050781 -19.234375 13.65625 -19.015625 C 13.269531 -18.804688 12.8125 -18.644531 12.28125 -18.53125 C 11.757812 -18.425781 11.25 -18.300781 10.75 -18.15625 C 10.25 -18.007812 9.863281 -17.757812 9.59375 -17.40625 C 9.300781 -17.03125 9.050781 -16.390625 8.84375 -15.484375 C 8.644531 -14.578125 8.53125 -13.5625 8.5 -12.4375 C 8.476562 -11.320312 8.550781 -10.25 8.71875 -9.21875 C 8.894531 -8.195312 9.210938 -7.347656 9.671875 -6.671875 C 10.128906 -6.003906 10.738281 -5.671875 11.5 -5.671875 C 11.820312 -5.671875 12.164062 -5.738281 12.53125 -5.875 C 12.894531 -6.007812 13.25 -6.125 13.59375 -6.21875 C 13.945312 -6.3125 14.257812 -6.289062 14.53125 -6.15625 C 14.90625 -6.019531 15.226562 -5.660156 15.5 -5.078125 C 15.769531 -4.492188 15.988281 -4.039062 16.15625 -3.71875 C 16.3125 -3.425781 16.421875 -3.128906 16.484375 -2.828125 C 16.503906 -2.429688 16.335938 -2.113281 15.984375 -1.875 C 15.640625 -1.644531 15.316406 -1.453125 15.015625 -1.296875 C 13.691406 -0.535156 12.285156 -0.109375 10.796875 -0.015625 C 9.316406 0.078125 7.90625 -0.265625 6.5625 -1.046875 Z M 6.5625 -1.046875 "/></g></g></g><g fill="#000000" fill-opacity="1"><g transform="translate(250.721113, 135.440665)"><g><path d="M 0.046875 -11.734375 C 0.015625 -13.242188 0.304688 -14.75 0.921875 -16.25 C 1.546875 -17.75 2.410156 -19.066406 3.515625 -20.203125 C 4.566406 -21.285156 5.769531 -22.109375 7.125 -22.671875 C 8.476562 -23.234375 9.867188 -23.515625 11.296875 -23.515625 C 11.429688 -23.515625 11.570312 -23.515625 11.71875 -23.515625 C 11.863281 -23.515625 12.003906 -23.515625 12.140625 -23.515625 C 12.140625 -23.515625 12.144531 -23.515625 12.15625 -23.515625 C 12.175781 -23.515625 12.1875 -23.515625 12.1875 -23.515625 C 14.53125 -23.515625 16.597656 -23.03125 18.390625 -22.0625 C 20.191406 -21.09375 21.601562 -19.742188 22.625 -18.015625 C 23.65625 -16.285156 24.171875 -14.289062 24.171875 -12.03125 C 24.171875 -8.488281 23.0625 -5.613281 20.84375 -3.40625 C 19.769531 -2.320312 18.484375 -1.488281 16.984375 -0.90625 C 15.484375 -0.332031 13.859375 -0.046875 12.109375 -0.046875 C 10.429688 -0.046875 8.867188 -0.347656 7.421875 -0.953125 C 5.984375 -1.554688 4.71875 -2.390625 3.625 -3.453125 C 2.53125 -4.523438 1.664062 -5.769531 1.03125 -7.1875 C 0.394531 -8.601562 0.0664062 -10.117188 0.046875 -11.734375 Z M 11.984375 -18.703125 C 11.035156 -18.703125 10.113281 -18.394531 9.21875 -17.78125 C 8.332031 -17.175781 7.597656 -16.394531 7.015625 -15.4375 C 6.441406 -14.476562 6.140625 -13.472656 6.109375 -12.421875 C 6.085938 -11.265625 6.273438 -10.144531 6.671875 -9.0625 C 7.078125 -7.988281 7.695312 -7.085938 8.53125 -6.359375 C 9.375 -5.628906 10.414062 -5.195312 11.65625 -5.0625 C 13.03125 -4.925781 14.191406 -5.140625 15.140625 -5.703125 C 16.085938 -6.273438 16.816406 -7.050781 17.328125 -8.03125 C 17.835938 -9.019531 18.117188 -10.097656 18.171875 -11.265625 C 18.234375 -12.441406 18.0625 -13.570312 17.65625 -14.65625 C 17.25 -15.738281 16.597656 -16.648438 15.703125 -17.390625 C 14.816406 -18.128906 13.6875 -18.566406 12.3125 -18.703125 C 12.25 -18.703125 12.191406 -18.703125 12.140625 -18.703125 C 12.085938 -18.703125 12.035156 -18.703125 11.984375 -18.703125 Z M 11.984375 -18.703125 "/></g></g></g><g fill="#000000" fill-opacity="1"><g transform="translate(278.932343, 135.440665)"><g><path d="M 12.59375 -17.9375 C 12.457031 -17.851562 12.300781 -17.789062 12.125 -17.75 C 11.945312 -17.707031 11.78125 -17.660156 11.625 -17.609375 C 11.320312 -17.578125 11.007812 -17.554688 10.6875 -17.546875 C 10.363281 -17.535156 10.050781 -17.488281 9.75 -17.40625 C 9.101562 -17.21875 8.550781 -16.875 8.09375 -16.375 C 7.632812 -15.875 7.285156 -15.316406 7.046875 -14.703125 C 6.585938 -13.453125 6.296875 -12.097656 6.171875 -10.640625 C 6.046875 -9.191406 6.003906 -7.722656 6.046875 -6.234375 C 6.085938 -4.753906 6.097656 -3.351562 6.078125 -2.03125 L 6.078125 -1.421875 C 6.078125 -0.898438 5.878906 -0.539062 5.484375 -0.34375 C 5.097656 -0.144531 4.625 -0.0351562 4.0625 -0.015625 C 3.507812 -0.00390625 2.96875 -0.0234375 2.4375 -0.078125 C 1.914062 -0.128906 1.507812 -0.171875 1.21875 -0.203125 C 0.945312 -0.203125 0.742188 -0.253906 0.609375 -0.359375 C 0.367188 -0.523438 0.210938 -0.835938 0.140625 -1.296875 C 0.078125 -1.753906 0.046875 -2.265625 0.046875 -2.828125 C 0.046875 -3.398438 0.0625 -3.941406 0.09375 -4.453125 C 0.132812 -4.960938 0.15625 -5.34375 0.15625 -5.59375 C 0.21875 -6.53125 0.273438 -7.472656 0.328125 -8.421875 C 0.378906 -9.367188 0.40625 -10.3125 0.40625 -11.25 C 0.40625 -13.082031 0.40625 -14.921875 0.40625 -16.765625 C 0.40625 -18.617188 0.40625 -20.476562 0.40625 -22.34375 C 0.40625 -22.800781 0.507812 -23.09375 0.71875 -23.21875 C 0.9375 -23.34375 1.207031 -23.390625 1.53125 -23.359375 C 1.863281 -23.328125 2.191406 -23.328125 2.515625 -23.359375 C 3.078125 -23.441406 3.628906 -23.484375 4.171875 -23.484375 C 5.273438 -23.484375 6.125 -23.128906 6.71875 -22.421875 C 6.9375 -22.179688 7.207031 -22.0625 7.53125 -22.0625 C 7.632812 -22.0625 7.726562 -22.078125 7.8125 -22.109375 C 8.164062 -22.128906 8.582031 -22.25 9.0625 -22.46875 C 9.550781 -22.6875 10.054688 -22.894531 10.578125 -23.09375 C 11.109375 -23.300781 11.601562 -23.4375 12.0625 -23.5 C 12.519531 -23.570312 12.894531 -23.492188 13.1875 -23.265625 C 13.488281 -23.035156 13.640625 -22.566406 13.640625 -21.859375 C 13.640625 -21.503906 13.632812 -21.144531 13.625 -20.78125 C 13.613281 -20.425781 13.59375 -20.070312 13.5625 -19.71875 C 13.53125 -19.53125 13.5 -19.328125 13.46875 -19.109375 C 13.445312 -18.890625 13.367188 -18.703125 13.234375 -18.546875 C 13.078125 -18.242188 12.863281 -18.039062 12.59375 -17.9375 Z M 12.59375 -17.9375 "/></g></g></g><g fill="#000000" fill-opacity="1"><g transform="translate(296.620019, 135.440665)"><g><path d="M 6.15625 8.625 C 5.476562 8.625 4.800781 8.546875 4.125 8.390625 C 3.457031 8.242188 2.8125 8.023438 2.1875 7.734375 C 1.5625 7.429688 1.09375 7.046875 0.78125 6.578125 C 0.476562 6.109375 0.515625 5.535156 0.890625 4.859375 C 1.242188 4.234375 1.5625 3.722656 1.84375 3.328125 C 2.125 2.941406 2.457031 2.691406 2.84375 2.578125 C 3.238281 2.472656 3.773438 2.570312 4.453125 2.875 C 4.992188 3.09375 5.546875 3.125 6.109375 2.96875 C 6.679688 2.820312 7.140625 2.535156 7.484375 2.109375 C 7.921875 1.617188 8.117188 1.144531 8.078125 0.6875 C 8.035156 0.226562 8.015625 -0.28125 8.015625 -0.84375 C 8.015625 -1.5 7.84375 -2.179688 7.5 -2.890625 C 7.164062 -3.609375 6.894531 -4.265625 6.6875 -4.859375 C 6.414062 -5.609375 6.128906 -6.363281 5.828125 -7.125 C 5.535156 -7.882812 5.238281 -8.640625 4.9375 -9.390625 C 4.34375 -10.953125 3.753906 -12.507812 3.171875 -14.0625 C 2.597656 -15.613281 2.015625 -17.175781 1.421875 -18.75 C 1.234375 -19.3125 0.984375 -19.863281 0.671875 -20.40625 C 0.359375 -20.945312 0.148438 -21.515625 0.046875 -22.109375 C -0.0664062 -22.671875 0.0625 -23.039062 0.4375 -23.21875 C 0.820312 -23.394531 1.289062 -23.472656 1.84375 -23.453125 C 2.394531 -23.441406 2.859375 -23.4375 3.234375 -23.4375 C 3.585938 -23.4375 3.9375 -23.414062 4.28125 -23.375 C 4.632812 -23.332031 4.972656 -23.234375 5.296875 -23.078125 C 5.867188 -22.804688 6.335938 -22.285156 6.703125 -21.515625 C 7.066406 -20.742188 7.375 -19.925781 7.625 -19.0625 C 7.882812 -18.195312 8.109375 -17.484375 8.296875 -16.921875 C 8.671875 -16.003906 9.046875 -15.078125 9.421875 -14.140625 C 9.804688 -13.210938 10.269531 -12.316406 10.8125 -11.453125 C 11.269531 -10.722656 11.726562 -10.445312 12.1875 -10.625 C 12.644531 -10.800781 13.007812 -11.226562 13.28125 -11.90625 C 13.957031 -13.570312 14.625 -15.242188 15.28125 -16.921875 C 15.945312 -18.597656 16.613281 -20.257812 17.28125 -21.90625 C 17.34375 -22.113281 17.421875 -22.304688 17.515625 -22.484375 C 17.609375 -22.660156 17.734375 -22.816406 17.890625 -22.953125 C 18.109375 -23.085938 18.332031 -23.175781 18.5625 -23.21875 C 18.789062 -23.257812 19.023438 -23.28125 19.265625 -23.28125 C 19.835938 -23.300781 20.398438 -23.316406 20.953125 -23.328125 C 21.503906 -23.347656 22.050781 -23.34375 22.59375 -23.3125 C 22.75 -23.3125 22.898438 -23.304688 23.046875 -23.296875 C 23.203125 -23.285156 23.332031 -23.222656 23.4375 -23.109375 C 23.65625 -22.953125 23.742188 -22.722656 23.703125 -22.421875 C 23.660156 -22.128906 23.585938 -21.863281 23.484375 -21.625 C 21.992188 -17.894531 20.492188 -14.175781 18.984375 -10.46875 C 17.472656 -6.757812 16.003906 -3.039062 14.578125 0.6875 C 14.253906 1.550781 13.925781 2.4375 13.59375 3.34375 C 13.269531 4.25 12.828125 5.066406 12.265625 5.796875 C 11.535156 6.710938 10.628906 7.40625 9.546875 7.875 C 8.472656 8.34375 7.34375 8.59375 6.15625 8.625 Z M 6.15625 8.625 "/></g></g></g><g fill="#000000" fill-opacity="1"><g transform="translate(324.386027, 135.440665)"><g/></g></g><g fill="#000000" fill-opacity="1"><g transform="translate(344.623627, 135.440665)"><g><path d="M 26.96875 -24.703125 C 26.96875 -24.585938 26.910156 -24.476562 26.796875 -24.375 C 26.367188 -23.863281 25.914062 -23.359375 25.4375 -22.859375 C 24.96875 -22.359375 24.503906 -21.847656 24.046875 -21.328125 C 23.992188 -21.273438 23.925781 -21.210938 23.84375 -21.140625 C 23.757812 -21.078125 23.664062 -21.019531 23.5625 -20.96875 C 23.289062 -20.882812 22.976562 -21.019531 22.625 -21.375 C 22.28125 -21.726562 22.015625 -21.984375 21.828125 -22.140625 C 20.929688 -22.785156 19.984375 -23.320312 18.984375 -23.75 C 17.984375 -24.1875 16.914062 -24.40625 15.78125 -24.40625 L 15.671875 -24.40625 C 13.503906 -24.382812 11.617188 -23.800781 10.015625 -22.65625 C 8.410156 -21.507812 7.242188 -19.921875 6.515625 -17.890625 C 6.191406 -17.003906 6.054688 -16.023438 6.109375 -14.953125 C 6.160156 -13.890625 6.367188 -12.835938 6.734375 -11.796875 C 7.097656 -10.765625 7.59375 -9.820312 8.21875 -8.96875 C 8.84375 -8.113281 9.554688 -7.429688 10.359375 -6.921875 C 11.796875 -6.035156 13.472656 -5.59375 15.390625 -5.59375 C 16.734375 -5.59375 17.957031 -5.804688 19.0625 -6.234375 C 20.175781 -6.660156 21.082031 -7.269531 21.78125 -8.0625 C 22.15625 -8.519531 22.503906 -8.804688 22.828125 -8.921875 C 23.148438 -9.046875 23.539062 -8.894531 24 -8.46875 C 24.4375 -8.0625 24.847656 -7.632812 25.234375 -7.1875 C 25.628906 -6.738281 26.003906 -6.285156 26.359375 -5.828125 C 26.410156 -5.722656 26.46875 -5.625 26.53125 -5.53125 C 26.601562 -5.4375 26.648438 -5.320312 26.671875 -5.1875 C 26.785156 -4.78125 26.648438 -4.398438 26.265625 -4.046875 C 25.890625 -3.691406 25.453125 -3.382812 24.953125 -3.125 C 24.453125 -2.875 24.070312 -2.671875 23.8125 -2.515625 C 22.5625 -1.734375 21.191406 -1.125 19.703125 -0.6875 C 18.222656 -0.257812 16.6875 -0.046875 15.09375 -0.046875 C 12.96875 -0.046875 11.070312 -0.351562 9.40625 -0.96875 C 7.75 -1.59375 6.332031 -2.410156 5.15625 -3.421875 C 3.988281 -4.429688 3.03125 -5.535156 2.28125 -6.734375 C 1.539062 -7.941406 1.007812 -9.140625 0.6875 -10.328125 C -0.0078125 -12.890625 -0.164062 -15.378906 0.21875 -17.796875 C 0.613281 -20.210938 1.539062 -22.363281 3 -24.25 C 4.375 -26.082031 6.097656 -27.503906 8.171875 -28.515625 C 10.253906 -29.535156 12.484375 -30.046875 14.859375 -30.046875 L 14.984375 -30.046875 C 16.703125 -30.046875 18.390625 -29.804688 20.046875 -29.328125 C 21.710938 -28.859375 23.25 -28.109375 24.65625 -27.078125 C 24.875 -26.921875 25.15625 -26.710938 25.5 -26.453125 C 25.851562 -26.203125 26.175781 -25.925781 26.46875 -25.625 C 26.769531 -25.332031 26.9375 -25.023438 26.96875 -24.703125 Z M 26.96875 -24.703125 "/></g></g></g><g fill="#000000" fill-opacity="1"><g transform="translate(375.627657, 135.440665)"><g><path d="M 0.046875 -11.734375 C 0.015625 -13.242188 0.304688 -14.75 0.921875 -16.25 C 1.546875 -17.75 2.410156 -19.066406 3.515625 -20.203125 C 4.566406 -21.285156 5.769531 -22.109375 7.125 -22.671875 C 8.476562 -23.234375 9.867188 -23.515625 11.296875 -23.515625 C 11.429688 -23.515625 11.570312 -23.515625 11.71875 -23.515625 C 11.863281 -23.515625 12.003906 -23.515625 12.140625 -23.515625 C 12.140625 -23.515625 12.144531 -23.515625 12.15625 -23.515625 C 12.175781 -23.515625 12.1875 -23.515625 12.1875 -23.515625 C 14.53125 -23.515625 16.597656 -23.03125 18.390625 -22.0625 C 20.191406 -21.09375 21.601562 -19.742188 22.625 -18.015625 C 23.65625 -16.285156 24.171875 -14.289062 24.171875 -12.03125 C 24.171875 -8.488281 23.0625 -5.613281 20.84375 -3.40625 C 19.769531 -2.320312 18.484375 -1.488281 16.984375 -0.90625 C 15.484375 -0.332031 13.859375 -0.046875 12.109375 -0.046875 C 10.429688 -0.046875 8.867188 -0.347656 7.421875 -0.953125 C 5.984375 -1.554688 4.71875 -2.390625 3.625 -3.453125 C 2.53125 -4.523438 1.664062 -5.769531 1.03125 -7.1875 C 0.394531 -8.601562 0.0664062 -10.117188 0.046875 -11.734375 Z M 11.984375 -18.703125 C 11.035156 -18.703125 10.113281 -18.394531 9.21875 -17.78125 C 8.332031 -17.175781 7.597656 -16.394531 7.015625 -15.4375 C 6.441406 -14.476562 6.140625 -13.472656 6.109375 -12.421875 C 6.085938 -11.265625 6.273438 -10.144531 6.671875 -9.0625 C 7.078125 -7.988281 7.695312 -7.085938 8.53125 -6.359375 C 9.375 -5.628906 10.414062 -5.195312 11.65625 -5.0625 C 13.03125 -4.925781 14.191406 -5.140625 15.140625 -5.703125 C 16.085938 -6.273438 16.816406 -7.050781 17.328125 -8.03125 C 17.835938 -9.019531 18.117188 -10.097656 18.171875 -11.265625 C 18.234375 -12.441406 18.0625 -13.570312 17.65625 -14.65625 C 17.25 -15.738281 16.597656 -16.648438 15.703125 -17.390625 C 14.816406 -18.128906 13.6875 -18.566406 12.3125 -18.703125 C 12.25 -18.703125 12.191406 -18.703125 12.140625 -18.703125 C 12.085938 -18.703125 12.035156 -18.703125 11.984375 -18.703125 Z M 11.984375 -18.703125 "/></g></g></g><g fill="#000000" fill-opacity="1"><g transform="translate(403.838887, 135.440665)"><g><path d="M 20.6875 -0.203125 C 19.988281 -0.234375 19.28125 -0.238281 18.5625 -0.21875 C 17.84375 -0.207031 17.117188 -0.203125 16.390625 -0.203125 C 16.234375 -0.203125 16.109375 -0.484375 16.015625 -1.046875 C 15.921875 -1.617188 15.859375 -2.363281 15.828125 -3.28125 C 15.796875 -4.195312 15.78125 -5.1875 15.78125 -6.25 C 15.78125 -7.320312 15.796875 -8.351562 15.828125 -9.34375 C 15.859375 -10.34375 15.878906 -11.207031 15.890625 -11.9375 C 15.898438 -12.664062 15.90625 -13.140625 15.90625 -13.359375 C 15.882812 -14.867188 15.648438 -16.015625 15.203125 -16.796875 C 14.753906 -17.578125 14.195312 -18.113281 13.53125 -18.40625 C 12.875 -18.707031 12.222656 -18.859375 11.578125 -18.859375 L 11.5 -18.859375 C 9.957031 -18.859375 8.707031 -18.335938 7.75 -17.296875 C 6.789062 -16.265625 6.285156 -14.910156 6.234375 -13.234375 C 6.203125 -12.160156 6.1875 -11.082031 6.1875 -10 C 6.1875 -8.914062 6.1875 -7.835938 6.1875 -6.765625 C 6.21875 -5.921875 6.289062 -4.992188 6.40625 -3.984375 C 6.53125 -2.972656 6.515625 -2.050781 6.359375 -1.21875 C 6.242188 -0.59375 5.988281 -0.257812 5.59375 -0.21875 C 5.207031 -0.175781 4.773438 -0.144531 4.296875 -0.125 C 3.972656 -0.09375 3.546875 -0.0546875 3.015625 -0.015625 C 2.492188 0.0234375 1.984375 0.00390625 1.484375 -0.078125 C 0.984375 -0.160156 0.609375 -0.363281 0.359375 -0.6875 C 0.0664062 -1.125 -0.0390625 -1.644531 0.03125 -2.25 C 0.113281 -2.851562 0.171875 -3.382812 0.203125 -3.84375 C 0.304688 -5.332031 0.390625 -6.84375 0.453125 -8.375 C 0.523438 -11.289062 0.441406 -14.191406 0.203125 -17.078125 C 0.148438 -17.648438 0.109375 -18.3125 0.078125 -19.0625 C 0.0546875 -19.820312 0.117188 -20.546875 0.265625 -21.234375 C 0.410156 -21.921875 0.707031 -22.457031 1.15625 -22.84375 C 1.601562 -23.238281 2.269531 -23.359375 3.15625 -23.203125 C 3.882812 -23.066406 4.597656 -22.894531 5.296875 -22.6875 C 6.003906 -22.488281 6.722656 -22.320312 7.453125 -22.1875 C 7.503906 -22.1875 7.5625 -22.1875 7.625 -22.1875 C 7.695312 -22.1875 7.742188 -22.1875 7.765625 -22.1875 C 8.285156 -22.1875 8.800781 -22.285156 9.3125 -22.484375 C 9.820312 -22.691406 10.347656 -22.898438 10.890625 -23.109375 C 11.429688 -23.328125 11.972656 -23.453125 12.515625 -23.484375 C 14.078125 -23.617188 15.5625 -23.347656 16.96875 -22.671875 C 18.175781 -22.109375 19.109375 -21.363281 19.765625 -20.4375 C 20.429688 -19.519531 20.910156 -18.507812 21.203125 -17.40625 C 21.503906 -16.300781 21.695312 -15.15625 21.78125 -13.96875 C 21.863281 -12.78125 21.929688 -11.601562 21.984375 -10.4375 C 21.984375 -10.195312 22.007812 -9.695312 22.0625 -8.9375 C 22.113281 -8.1875 22.144531 -7.316406 22.15625 -6.328125 C 22.175781 -5.347656 22.160156 -4.390625 22.109375 -3.453125 C 22.054688 -2.523438 21.925781 -1.75 21.71875 -1.125 C 21.519531 -0.507812 21.21875 -0.203125 20.8125 -0.203125 C 20.78125 -0.203125 20.757812 -0.203125 20.75 -0.203125 C 20.738281 -0.203125 20.71875 -0.203125 20.6875 -0.203125 Z M 20.6875 -0.203125 "/></g></g></g><g fill="#000000" fill-opacity="1"><g transform="translate(430.066821, 135.440665)"><g><path d="M 6.5625 -1.046875 C 5.070312 -1.910156 4.09375 -3.054688 3.625 -4.484375 C 3.15625 -5.921875 2.929688 -7.445312 2.953125 -9.0625 C 2.984375 -10.007812 2.988281 -10.953125 2.96875 -11.890625 C 2.957031 -12.835938 2.953125 -13.773438 2.953125 -14.703125 C 2.953125 -15.347656 2.957031 -16 2.96875 -16.65625 C 2.988281 -17.320312 2.742188 -17.910156 2.234375 -18.421875 C 1.960938 -18.710938 1.625 -18.90625 1.21875 -19 C 0.8125 -19.101562 0.515625 -19.351562 0.328125 -19.75 C 0.242188 -19.945312 0.1875 -20.140625 0.15625 -20.328125 C 0.132812 -20.515625 0.109375 -20.703125 0.078125 -20.890625 C 0.0546875 -21.316406 0.0546875 -21.738281 0.078125 -22.15625 C 0.109375 -22.582031 0.285156 -22.957031 0.609375 -23.28125 C 0.878906 -23.519531 1.195312 -23.671875 1.5625 -23.734375 C 1.925781 -23.804688 2.226562 -23.992188 2.46875 -24.296875 C 2.925781 -24.828125 3.15625 -25.414062 3.15625 -26.0625 C 3.15625 -26.71875 3.128906 -27.34375 3.078125 -27.9375 C 3.023438 -28.394531 2.988281 -28.765625 2.96875 -29.046875 C 2.957031 -29.328125 3.171875 -29.59375 3.609375 -29.84375 C 3.929688 -30.03125 4.34375 -30.125 4.84375 -30.125 C 5.34375 -30.125 5.835938 -30.09375 6.328125 -30.03125 C 6.828125 -29.976562 7.253906 -29.925781 7.609375 -29.875 C 8.304688 -29.789062 8.679688 -29.523438 8.734375 -29.078125 C 8.796875 -28.640625 8.800781 -28.132812 8.75 -27.5625 C 8.632812 -26 8.914062 -24.84375 9.59375 -24.09375 C 9.914062 -23.738281 10.28125 -23.523438 10.6875 -23.453125 C 11.09375 -23.390625 11.503906 -23.367188 11.921875 -23.390625 C 12.335938 -23.421875 12.734375 -23.421875 13.109375 -23.390625 C 13.492188 -23.367188 13.820312 -23.222656 14.09375 -22.953125 C 14.382812 -22.660156 14.507812 -22.207031 14.46875 -21.59375 C 14.425781 -20.988281 14.378906 -20.5 14.328125 -20.125 C 14.273438 -19.601562 14.050781 -19.234375 13.65625 -19.015625 C 13.269531 -18.804688 12.8125 -18.644531 12.28125 -18.53125 C 11.757812 -18.425781 11.25 -18.300781 10.75 -18.15625 C 10.25 -18.007812 9.863281 -17.757812 9.59375 -17.40625 C 9.300781 -17.03125 9.050781 -16.390625 8.84375 -15.484375 C 8.644531 -14.578125 8.53125 -13.5625 8.5 -12.4375 C 8.476562 -11.320312 8.550781 -10.25 8.71875 -9.21875 C 8.894531 -8.195312 9.210938 -7.347656 9.671875 -6.671875 C 10.128906 -6.003906 10.738281 -5.671875 11.5 -5.671875 C 11.820312 -5.671875 12.164062 -5.738281 12.53125 -5.875 C 12.894531 -6.007812 13.25 -6.125 13.59375 -6.21875 C 13.945312 -6.3125 14.257812 -6.289062 14.53125 -6.15625 C 14.90625 -6.019531 15.226562 -5.660156 15.5 -5.078125 C 15.769531 -4.492188 15.988281 -4.039062 16.15625 -3.71875 C 16.3125 -3.425781 16.421875 -3.128906 16.484375 -2.828125 C 16.503906 -2.429688 16.335938 -2.113281 15.984375 -1.875 C 15.640625 -1.644531 15.316406 -1.453125 15.015625 -1.296875 C 13.691406 -0.535156 12.285156 -0.109375 10.796875 -0.015625 C 9.316406 0.078125 7.90625 -0.265625 6.5625 -1.046875 Z M 6.5625 -1.046875 "/></g></g></g><g fill="#000000" fill-opacity="1"><g transform="translate(450.628257, 135.440665)"><g><path d="M 22.71875 -10.28125 C 22.382812 -10.007812 21.898438 -9.828125 21.265625 -9.734375 C 20.640625 -9.640625 19.96875 -9.59375 19.25 -9.59375 C 18.53125 -9.59375 17.859375 -9.601562 17.234375 -9.625 C 16.617188 -9.65625 16.148438 -9.671875 15.828125 -9.671875 C 14.421875 -9.648438 13.03125 -9.628906 11.65625 -9.609375 C 10.28125 -9.597656 8.890625 -9.59375 7.484375 -9.59375 C 7.054688 -9.59375 6.78125 -9.457031 6.65625 -9.1875 C 6.539062 -8.914062 6.53125 -8.609375 6.625 -8.265625 C 6.71875 -7.929688 6.84375 -7.644531 7 -7.40625 C 7.570312 -6.675781 8.28125 -6.085938 9.125 -5.640625 C 9.976562 -5.203125 10.863281 -4.925781 11.78125 -4.8125 C 12.800781 -4.707031 13.65625 -4.847656 14.34375 -5.234375 C 15.039062 -5.628906 15.816406 -6.046875 16.671875 -6.484375 C 17.078125 -6.691406 17.351562 -6.820312 17.5 -6.875 C 17.65625 -6.9375 17.910156 -6.816406 18.265625 -6.515625 C 18.640625 -6.222656 18.992188 -5.816406 19.328125 -5.296875 C 19.671875 -4.785156 20.003906 -4.34375 20.328125 -3.96875 C 20.671875 -3.507812 20.65625 -3.078125 20.28125 -2.671875 C 19.90625 -2.265625 19.328125 -1.890625 18.546875 -1.546875 C 17.765625 -1.210938 16.910156 -0.925781 15.984375 -0.6875 C 15.066406 -0.445312 14.238281 -0.257812 13.5 -0.125 C 12.757812 0.0078125 12.253906 0.078125 11.984375 0.078125 C 10.171875 0.078125 8.503906 -0.273438 6.984375 -0.984375 C 5.460938 -1.703125 4.160156 -2.675781 3.078125 -3.90625 C 1.992188 -5.132812 1.179688 -6.515625 0.640625 -8.046875 C 0.109375 -9.585938 -0.0976562 -11.203125 0.015625 -12.890625 C 0.140625 -14.578125 0.660156 -16.21875 1.578125 -17.8125 C 2.273438 -19.050781 3.210938 -20.101562 4.390625 -20.96875 C 5.566406 -21.832031 6.863281 -22.472656 8.28125 -22.890625 C 9.695312 -23.304688 11.144531 -23.492188 12.625 -23.453125 C 14.113281 -23.421875 15.523438 -23.125 16.859375 -22.5625 C 18.191406 -22.007812 19.359375 -21.179688 20.359375 -20.078125 C 20.816406 -19.566406 21.253906 -18.925781 21.671875 -18.15625 C 22.097656 -17.382812 22.457031 -16.550781 22.75 -15.65625 C 23.050781 -14.769531 23.234375 -13.898438 23.296875 -13.046875 C 23.367188 -12.203125 23.28125 -11.429688 23.03125 -10.734375 C 22.976562 -10.566406 22.875 -10.414062 22.71875 -10.28125 Z M 16.59375 -14.5 C 16.675781 -14.6875 16.703125 -14.882812 16.671875 -15.09375 C 16.648438 -15.425781 16.503906 -15.738281 16.234375 -16.03125 C 15.503906 -17.050781 14.554688 -17.804688 13.390625 -18.296875 C 12.234375 -18.785156 11.050781 -18.757812 9.84375 -18.21875 C 9.300781 -17.976562 8.789062 -17.664062 8.3125 -17.28125 C 7.84375 -16.90625 7.40625 -16.503906 7 -16.078125 C 6.894531 -15.960938 6.785156 -15.835938 6.671875 -15.703125 C 6.566406 -15.566406 6.488281 -15.421875 6.4375 -15.265625 C 6.332031 -14.941406 6.382812 -14.644531 6.59375 -14.375 C 6.8125 -14.101562 7.082031 -13.96875 7.40625 -13.96875 L 15.671875 -13.96875 C 16.128906 -13.96875 16.4375 -14.144531 16.59375 -14.5 Z M 16.59375 -14.5 "/></g></g></g><g fill="#000000" fill-opacity="1"><g transform="translate(477.989491, 135.440665)"><g><path d="M 12.3125 -4.90625 C 12.195312 -5.113281 12.066406 -5.285156 11.921875 -5.421875 C 11.773438 -5.554688 11.578125 -5.625 11.328125 -5.625 C 11.066406 -5.625 10.828125 -5.515625 10.609375 -5.296875 C 9.984375 -4.679688 9.398438 -4.0625 8.859375 -3.4375 C 8.191406 -2.6875 7.4375 -2 6.59375 -1.375 C 5.757812 -0.757812 4.851562 -0.328125 3.875 -0.078125 C 2.90625 0.160156 1.867188 0.09375 0.765625 -0.28125 C 0.203125 -0.5 -0.0507812 -0.769531 0 -1.09375 C 0.0507812 -1.414062 0.210938 -1.847656 0.484375 -2.390625 C 0.992188 -3.359375 1.632812 -4.234375 2.40625 -5.015625 C 3.175781 -5.796875 3.875 -6.632812 4.5 -7.53125 C 4.976562 -8.207031 5.421875 -8.894531 5.828125 -9.59375 C 6.234375 -10.289062 6.476562 -11.019531 6.5625 -11.78125 C 6.644531 -12.539062 6.425781 -13.3125 5.90625 -14.09375 C 5.445312 -14.820312 4.945312 -15.507812 4.40625 -16.15625 C 3.875 -16.800781 3.335938 -17.460938 2.796875 -18.140625 C 2.578125 -18.429688 2.242188 -18.847656 1.796875 -19.390625 C 1.359375 -19.929688 0.960938 -20.488281 0.609375 -21.0625 C 0.253906 -21.644531 0.101562 -22.128906 0.15625 -22.515625 C 0.238281 -22.859375 0.53125 -23.097656 1.03125 -23.234375 C 1.53125 -23.367188 2.082031 -23.441406 2.6875 -23.453125 C 3.300781 -23.472656 3.769531 -23.46875 4.09375 -23.4375 C 4.789062 -23.414062 5.460938 -23.273438 6.109375 -23.015625 C 6.753906 -22.753906 7.28125 -22.316406 7.6875 -21.703125 C 7.800781 -21.585938 7.894531 -21.476562 7.96875 -21.375 C 8.050781 -21.269531 8.117188 -21.160156 8.171875 -21.046875 C 8.390625 -20.773438 8.609375 -20.484375 8.828125 -20.171875 C 9.046875 -19.867188 9.25 -19.554688 9.4375 -19.234375 C 9.625 -18.910156 9.8125 -18.613281 10 -18.34375 C 10.1875 -18.039062 10.429688 -17.890625 10.734375 -17.890625 C 10.753906 -17.890625 10.769531 -17.890625 10.78125 -17.890625 C 10.800781 -17.890625 10.820312 -17.890625 10.84375 -17.890625 C 11.144531 -17.890625 11.390625 -17.984375 11.578125 -18.171875 C 11.878906 -18.472656 12.148438 -18.769531 12.390625 -19.0625 C 12.628906 -19.363281 12.882812 -19.660156 13.15625 -19.953125 C 13.695312 -20.578125 14.21875 -21.164062 14.71875 -21.71875 C 15.21875 -22.269531 15.765625 -22.671875 16.359375 -22.921875 C 16.898438 -23.128906 17.46875 -23.257812 18.0625 -23.3125 C 18.65625 -23.375 19.234375 -23.390625 19.796875 -23.359375 C 20.171875 -23.359375 20.566406 -23.320312 20.984375 -23.25 C 21.410156 -23.1875 21.71875 -23.039062 21.90625 -22.8125 C 22.09375 -22.582031 22.007812 -22.210938 21.65625 -21.703125 C 20.875 -20.515625 20.003906 -19.378906 19.046875 -18.296875 C 18.085938 -17.210938 17.257812 -16.050781 16.5625 -14.8125 C 15.800781 -13.488281 15.546875 -12.226562 15.796875 -11.03125 C 16.054688 -9.832031 16.6875 -8.664062 17.6875 -7.53125 C 18.144531 -7.019531 18.710938 -6.398438 19.390625 -5.671875 C 20.066406 -4.941406 20.675781 -4.175781 21.21875 -3.375 C 21.757812 -2.582031 22.039062 -1.820312 22.0625 -1.09375 C 22.09375 -0.6875 21.914062 -0.425781 21.53125 -0.3125 C 21.15625 -0.207031 20.71875 -0.171875 20.21875 -0.203125 C 19.71875 -0.234375 19.296875 -0.25 18.953125 -0.25 C 17.597656 -0.25 16.351562 -0.546875 15.21875 -1.140625 C 14.082031 -1.734375 13.25 -2.691406 12.71875 -4.015625 C 12.65625 -4.140625 12.585938 -4.285156 12.515625 -4.453125 C 12.453125 -4.617188 12.382812 -4.769531 12.3125 -4.90625 Z M 12.3125 -4.90625 "/></g></g></g><g fill="#000000" fill-opacity="1"><g transform="translate(504.136487, 135.440665)"><g><path d="M 6.5625 -1.046875 C 5.070312 -1.910156 4.09375 -3.054688 3.625 -4.484375 C 3.15625 -5.921875 2.929688 -7.445312 2.953125 -9.0625 C 2.984375 -10.007812 2.988281 -10.953125 2.96875 -11.890625 C 2.957031 -12.835938 2.953125 -13.773438 2.953125 -14.703125 C 2.953125 -15.347656 2.957031 -16 2.96875 -16.65625 C 2.988281 -17.320312 2.742188 -17.910156 2.234375 -18.421875 C 1.960938 -18.710938 1.625 -18.90625 1.21875 -19 C 0.8125 -19.101562 0.515625 -19.351562 0.328125 -19.75 C 0.242188 -19.945312 0.1875 -20.140625 0.15625 -20.328125 C 0.132812 -20.515625 0.109375 -20.703125 0.078125 -20.890625 C 0.0546875 -21.316406 0.0546875 -21.738281 0.078125 -22.15625 C 0.109375 -22.582031 0.285156 -22.957031 0.609375 -23.28125 C 0.878906 -23.519531 1.195312 -23.671875 1.5625 -23.734375 C 1.925781 -23.804688 2.226562 -23.992188 2.46875 -24.296875 C 2.925781 -24.828125 3.15625 -25.414062 3.15625 -26.0625 C 3.15625 -26.71875 3.128906 -27.34375 3.078125 -27.9375 C 3.023438 -28.394531 2.988281 -28.765625 2.96875 -29.046875 C 2.957031 -29.328125 3.171875 -29.59375 3.609375 -29.84375 C 3.929688 -30.03125 4.34375 -30.125 4.84375 -30.125 C 5.34375 -30.125 5.835938 -30.09375 6.328125 -30.03125 C 6.828125 -29.976562 7.253906 -29.925781 7.609375 -29.875 C 8.304688 -29.789062 8.679688 -29.523438 8.734375 -29.078125 C 8.796875 -28.640625 8.800781 -28.132812 8.75 -27.5625 C 8.632812 -26 8.914062 -24.84375 9.59375 -24.09375 C 9.914062 -23.738281 10.28125 -23.523438 10.6875 -23.453125 C 11.09375 -23.390625 11.503906 -23.367188 11.921875 -23.390625 C 12.335938 -23.421875 12.734375 -23.421875 13.109375 -23.390625 C 13.492188 -23.367188 13.820312 -23.222656 14.09375 -22.953125 C 14.382812 -22.660156 14.507812 -22.207031 14.46875 -21.59375 C 14.425781 -20.988281 14.378906 -20.5 14.328125 -20.125 C 14.273438 -19.601562 14.050781 -19.234375 13.65625 -19.015625 C 13.269531 -18.804688 12.8125 -18.644531 12.28125 -18.53125 C 11.757812 -18.425781 11.25 -18.300781 10.75 -18.15625 C 10.25 -18.007812 9.863281 -17.757812 9.59375 -17.40625 C 9.300781 -17.03125 9.050781 -16.390625 8.84375 -15.484375 C 8.644531 -14.578125 8.53125 -13.5625 8.5 -12.4375 C 8.476562 -11.320312 8.550781 -10.25 8.71875 -9.21875 C 8.894531 -8.195312 9.210938 -7.347656 9.671875 -6.671875 C 10.128906 -6.003906 10.738281 -5.671875 11.5 -5.671875 C 11.820312 -5.671875 12.164062 -5.738281 12.53125 -5.875 C 12.894531 -6.007812 13.25 -6.125 13.59375 -6.21875 C 13.945312 -6.3125 14.257812 -6.289062 14.53125 -6.15625 C 14.90625 -6.019531 15.226562 -5.660156 15.5 -5.078125 C 15.769531 -4.492188 15.988281 -4.039062 16.15625 -3.71875 C 16.3125 -3.425781 16.421875 -3.128906 16.484375 -2.828125 C 16.503906 -2.429688 16.335938 -2.113281 15.984375 -1.875 C 15.640625 -1.644531 15.316406 -1.453125 15.015625 -1.296875 C 13.691406 -0.535156 12.285156 -0.109375 10.796875 -0.015625 C 9.316406 0.078125 7.90625 -0.265625 6.5625 -1.046875 Z M 6.5625 -1.046875 "/></g></g></g><g fill="#000000" fill-opacity="1"><g transform="translate(524.697881, 135.440665)"><g/></g></g><g fill="#000000" fill-opacity="1"><g transform="translate(544.935482, 135.440665)"><g><path d="M 20.890625 -9.3125 C 20.753906 -9.175781 20.539062 -9.109375 20.25 -9.109375 C 19.59375 -9.140625 18.945312 -9.15625 18.3125 -9.15625 C 17.6875 -9.15625 17.046875 -9.15625 16.390625 -9.15625 C 15.984375 -9.175781 15.550781 -9.210938 15.09375 -9.265625 C 14.632812 -9.328125 14.207031 -9.289062 13.8125 -9.15625 C 13.539062 -9.070312 13.394531 -8.894531 13.375 -8.625 C 13.363281 -8.351562 13.359375 -8.109375 13.359375 -7.890625 C 13.390625 -7.003906 13.40625 -6.113281 13.40625 -5.21875 C 13.40625 -4.332031 13.40625 -3.441406 13.40625 -2.546875 C 13.40625 -2.410156 13.4375 -2.238281 13.5 -2.03125 C 13.570312 -1.832031 13.539062 -1.664062 13.40625 -1.53125 C 13.269531 -1.375 13.023438 -1.304688 12.671875 -1.328125 C 12.316406 -1.359375 12.035156 -1.375 11.828125 -1.375 C 11.441406 -1.375 11.050781 -1.375 10.65625 -1.375 C 10.269531 -1.375 9.890625 -1.375 9.515625 -1.375 C 9.296875 -1.375 9.054688 -1.351562 8.796875 -1.3125 C 8.546875 -1.269531 8.3125 -1.289062 8.09375 -1.375 C 7.800781 -1.507812 7.644531 -1.710938 7.625 -1.984375 C 7.613281 -2.253906 7.609375 -2.523438 7.609375 -2.796875 C 7.640625 -3.679688 7.65625 -4.5625 7.65625 -5.4375 C 7.65625 -6.320312 7.664062 -7.207031 7.6875 -8.09375 C 7.6875 -8.582031 7.550781 -8.914062 7.28125 -9.09375 C 7.007812 -9.269531 6.671875 -9.359375 6.265625 -9.359375 C 5.867188 -9.359375 5.457031 -9.320312 5.03125 -9.25 C 4.613281 -9.1875 4.257812 -9.15625 3.96875 -9.15625 C 3.269531 -9.09375 2.566406 -9.09375 1.859375 -9.15625 C 1.617188 -9.15625 1.375 -9.144531 1.125 -9.125 C 0.882812 -9.113281 0.644531 -9.132812 0.40625 -9.1875 C 0.300781 -9.1875 0.21875 -9.226562 0.15625 -9.3125 C 0.101562 -9.363281 0.078125 -9.457031 0.078125 -9.59375 C 0.078125 -10.050781 0.078125 -10.507812 0.078125 -10.96875 C 0.078125 -11.425781 0.078125 -11.882812 0.078125 -12.34375 C 0.078125 -12.53125 0.0546875 -12.78125 0.015625 -13.09375 C -0.0234375 -13.40625 -0.015625 -13.679688 0.046875 -13.921875 C 0.117188 -14.171875 0.289062 -14.296875 0.5625 -14.296875 C 1.5625 -14.296875 2.5625 -14.296875 3.5625 -14.296875 C 4.5625 -14.296875 5.5625 -14.296875 6.5625 -14.296875 C 6.695312 -14.296875 6.820312 -14.300781 6.9375 -14.3125 C 7.0625 -14.320312 7.175781 -14.34375 7.28125 -14.375 C 7.445312 -14.457031 7.550781 -14.578125 7.59375 -14.734375 C 7.632812 -14.898438 7.65625 -15.0625 7.65625 -15.21875 C 7.65625 -15.84375 7.65625 -16.472656 7.65625 -17.109375 C 7.65625 -17.742188 7.65625 -18.359375 7.65625 -18.953125 C 7.65625 -19.273438 7.660156 -19.597656 7.671875 -19.921875 C 7.679688 -20.242188 7.675781 -20.566406 7.65625 -20.890625 C 7.65625 -21.023438 7.632812 -21.234375 7.59375 -21.515625 C 7.550781 -21.796875 7.609375 -21.976562 7.765625 -22.0625 C 7.847656 -22.113281 7.929688 -22.140625 8.015625 -22.140625 C 8.097656 -22.140625 8.164062 -22.140625 8.21875 -22.140625 C 8.945312 -22.117188 9.675781 -22.097656 10.40625 -22.078125 C 11.132812 -22.066406 11.863281 -22.078125 12.59375 -22.109375 C 12.914062 -22.128906 13.128906 -22.09375 13.234375 -22 C 13.347656 -21.90625 13.40625 -21.710938 13.40625 -21.421875 C 13.40625 -20.984375 13.40625 -20.554688 13.40625 -20.140625 C 13.40625 -19.722656 13.40625 -19.3125 13.40625 -18.90625 C 13.40625 -18.226562 13.40625 -17.554688 13.40625 -16.890625 C 13.40625 -16.234375 13.40625 -15.582031 13.40625 -14.9375 C 13.40625 -14.78125 13.414062 -14.660156 13.4375 -14.578125 C 13.570312 -14.304688 13.863281 -14.179688 14.3125 -14.203125 C 14.757812 -14.234375 15.085938 -14.25 15.296875 -14.25 C 16.140625 -14.25 16.972656 -14.25 17.796875 -14.25 C 18.617188 -14.25 19.4375 -14.265625 20.25 -14.296875 C 20.351562 -14.296875 20.472656 -14.300781 20.609375 -14.3125 C 20.742188 -14.320312 20.835938 -14.273438 20.890625 -14.171875 C 21.054688 -13.929688 21.109375 -13.617188 21.046875 -13.234375 C 20.992188 -12.859375 20.96875 -12.519531 20.96875 -12.21875 C 20.96875 -11.84375 20.972656 -11.457031 20.984375 -11.0625 C 21.003906 -10.675781 21.023438 -10.296875 21.046875 -9.921875 C 21.046875 -9.617188 20.992188 -9.414062 20.890625 -9.3125 Z M 20.890625 -9.3125 "/></g></g></g><g fill="#000000" fill-opacity="1"><g transform="translate(570.070607, 135.440665)"><g/></g></g><g fill="#000000" fill-opacity="1"><g transform="translate(590.308207, 135.440665)"><g><path d="M 29.109375 -6.515625 C 29.484375 -5.648438 29.875 -4.785156 30.28125 -3.921875 C 30.6875 -3.054688 31.066406 -2.195312 31.421875 -1.34375 C 31.609375 -0.90625 31.679688 -0.59375 31.640625 -0.40625 C 31.597656 -0.21875 31.332031 -0.109375 30.84375 -0.078125 C 30.113281 -0.0546875 29.378906 -0.046875 28.640625 -0.046875 C 27.898438 -0.046875 27.148438 -0.0820312 26.390625 -0.15625 C 25.828125 -0.21875 25.34375 -0.484375 24.9375 -0.953125 C 24.53125 -1.421875 24.257812 -1.925781 24.125 -2.46875 C 23.9375 -3.164062 23.671875 -3.851562 23.328125 -4.53125 C 22.992188 -5.207031 22.519531 -5.75 21.90625 -6.15625 C 21.394531 -6.507812 20.890625 -6.695312 20.390625 -6.71875 C 19.890625 -6.75 19.351562 -6.765625 18.78125 -6.765625 C 18.132812 -6.734375 17.488281 -6.722656 16.84375 -6.734375 C 16.195312 -6.753906 15.535156 -6.773438 14.859375 -6.796875 C 14.078125 -6.847656 13.3125 -6.851562 12.5625 -6.8125 C 11.820312 -6.78125 11.085938 -6.570312 10.359375 -6.1875 C 9.441406 -5.726562 8.691406 -5.085938 8.109375 -4.265625 C 7.535156 -3.441406 7.140625 -2.53125 6.921875 -1.53125 C 6.867188 -1.207031 6.757812 -0.910156 6.59375 -0.640625 C 6.4375 -0.378906 6.171875 -0.234375 5.796875 -0.203125 C 5.679688 -0.203125 5.3125 -0.179688 4.6875 -0.140625 C 4.070312 -0.0976562 3.390625 -0.0703125 2.640625 -0.0625 C 1.898438 -0.0507812 1.265625 -0.0820312 0.734375 -0.15625 C 0.210938 -0.238281 -0.015625 -0.375 0.046875 -0.5625 C 0.0976562 -0.695312 0.132812 -0.816406 0.15625 -0.921875 C 0.1875 -1.035156 0.21875 -1.144531 0.25 -1.25 C 0.625 -2.363281 1.078125 -3.4375 1.609375 -4.46875 C 2.148438 -5.507812 2.65625 -6.570312 3.125 -7.65625 C 3.632812 -8.8125 4.140625 -9.96875 4.640625 -11.125 C 5.140625 -12.289062 5.644531 -13.453125 6.15625 -14.609375 C 7.175781 -16.929688 8.1875 -19.253906 9.1875 -21.578125 C 10.1875 -23.898438 11.160156 -26.222656 12.109375 -28.546875 C 12.347656 -29.109375 12.613281 -29.5 12.90625 -29.71875 C 13.207031 -29.9375 13.628906 -30.046875 14.171875 -30.046875 L 14.25 -30.046875 C 14.757812 -30.015625 15.265625 -30.007812 15.765625 -30.03125 C 16.265625 -30.0625 16.769531 -30.066406 17.28125 -30.046875 C 18.007812 -29.984375 18.539062 -29.769531 18.875 -29.40625 C 19.21875 -29.039062 19.523438 -28.5625 19.796875 -27.96875 C 20.117188 -27.238281 20.441406 -26.515625 20.765625 -25.796875 C 21.085938 -25.085938 21.410156 -24.367188 21.734375 -23.640625 C 22.359375 -22.210938 22.992188 -20.773438 23.640625 -19.328125 C 24.285156 -17.890625 24.921875 -16.453125 25.546875 -15.015625 C 25.597656 -14.929688 25.804688 -14.453125 26.171875 -13.578125 C 26.535156 -12.703125 26.976562 -11.628906 27.5 -10.359375 C 28.03125 -9.097656 28.566406 -7.816406 29.109375 -6.515625 Z M 18.453125 -12.1875 C 18.921875 -12.207031 19.300781 -12.21875 19.59375 -12.21875 C 19.894531 -12.21875 19.945312 -12.488281 19.75 -13.03125 C 19.644531 -13.46875 19.476562 -13.878906 19.25 -14.265625 C 19.019531 -14.660156 18.796875 -15.0625 18.578125 -15.46875 C 18.285156 -16.007812 18.023438 -16.582031 17.796875 -17.1875 C 17.566406 -17.789062 17.316406 -18.390625 17.046875 -18.984375 C 16.910156 -19.285156 16.785156 -19.597656 16.671875 -19.921875 C 16.566406 -20.242188 16.445312 -20.539062 16.3125 -20.8125 C 16.125 -21.269531 15.96875 -21.488281 15.84375 -21.46875 C 15.726562 -21.457031 15.578125 -21.222656 15.390625 -20.765625 C 15.085938 -20.085938 14.796875 -19.398438 14.515625 -18.703125 C 14.234375 -18.003906 13.941406 -17.300781 13.640625 -16.59375 C 13.367188 -15.976562 13.046875 -15.378906 12.671875 -14.796875 C 12.296875 -14.210938 12.015625 -13.585938 11.828125 -12.921875 C 11.765625 -12.722656 11.765625 -12.554688 11.828125 -12.421875 C 11.898438 -12.160156 12.160156 -12.054688 12.609375 -12.109375 C 13.054688 -12.160156 13.375 -12.1875 13.5625 -12.1875 C 14.375 -12.1875 15.179688 -12.1875 15.984375 -12.1875 C 16.796875 -12.1875 17.617188 -12.1875 18.453125 -12.1875 Z M 18.453125 -12.1875 "/></g></g></g><g fill="#000000" fill-opacity="1"><g transform="translate(626.007354, 135.440665)"><g><path d="M 1.375 -30.046875 C 1.40625 -30.046875 1.429688 -30.046875 1.453125 -30.046875 C 1.484375 -30.046875 1.507812 -30.046875 1.53125 -30.046875 C 2.207031 -30.046875 2.867188 -30.035156 3.515625 -30.015625 C 4.171875 -30.003906 4.832031 -29.984375 5.5 -29.953125 C 5.988281 -29.929688 6.234375 -29.742188 6.234375 -29.390625 C 6.234375 -29.035156 6.234375 -28.671875 6.234375 -28.296875 C 6.234375 -25.972656 6.234375 -23.632812 6.234375 -21.28125 C 6.234375 -18.9375 6.234375 -16.609375 6.234375 -14.296875 C 6.234375 -13.179688 6.222656 -12.0625 6.203125 -10.9375 C 6.191406 -9.820312 6.1875 -8.710938 6.1875 -7.609375 C 6.1875 -6.585938 6.25 -5.554688 6.375 -4.515625 C 6.5 -3.472656 6.492188 -2.425781 6.359375 -1.375 C 6.273438 -0.863281 6.097656 -0.53125 5.828125 -0.375 C 5.554688 -0.226562 5.164062 -0.128906 4.65625 -0.078125 C 4.414062 -0.0546875 4.046875 -0.0351562 3.546875 -0.015625 C 3.046875 -0.00390625 2.523438 -0.03125 1.984375 -0.09375 C 1.441406 -0.164062 0.972656 -0.300781 0.578125 -0.5 C 0.191406 -0.707031 0 -1 0 -1.375 C 0 -5.90625 0.00390625 -10.4375 0.015625 -14.96875 C 0.0351562 -19.507812 0.03125 -24.046875 0 -28.578125 C 0 -29.117188 0.0976562 -29.488281 0.296875 -29.6875 C 0.503906 -29.894531 0.863281 -30.015625 1.375 -30.046875 Z M 1.375 -30.046875 "/></g></g></g><g fill="#000000" fill-opacity="1"><g transform="translate(260.351854, 247.856116)"><g><path d="M 8.0625 -9.265625 C 7.40625 -9.265625 6.921875 -8.984375 6.609375 -8.421875 C 6.304688 -7.859375 6.113281 -7.171875 6.03125 -6.359375 C 5.945312 -5.546875 5.914062 -4.757812 5.9375 -4 C 5.96875 -3.25 6 -2.6875 6.03125 -2.3125 C 6.082031 -1.925781 6.113281 -1.519531 6.125 -1.09375 C 6.144531 -0.664062 5.9375 -0.351562 5.5 -0.15625 C 5.207031 -0.0507812 4.863281 -0.03125 4.46875 -0.09375 C 4.082031 -0.164062 3.726562 -0.1875 3.40625 -0.15625 C 3.21875 -0.15625 2.878906 -0.132812 2.390625 -0.09375 C 1.898438 -0.0625 1.425781 -0.0625 0.96875 -0.09375 C 0.507812 -0.132812 0.226562 -0.265625 0.125 -0.484375 C 0.09375 -0.566406 0.078125 -0.71875 0.078125 -0.9375 C 0.078125 -2.445312 0.078125 -3.957031 0.078125 -5.46875 C 0.078125 -6.976562 0.078125 -8.472656 0.078125 -9.953125 C 0.078125 -12.816406 0.078125 -15.6875 0.078125 -18.5625 C 0.078125 -21.4375 0.0664062 -24.304688 0.046875 -27.171875 C 0.046875 -27.703125 0.078125 -28.25 0.140625 -28.8125 C 0.210938 -29.382812 0.570312 -29.765625 1.21875 -29.953125 C 1.757812 -30.117188 2.328125 -30.140625 2.921875 -30.015625 C 3.515625 -29.898438 4.09375 -29.828125 4.65625 -29.796875 C 6.675781 -29.691406 8.695312 -29.601562 10.71875 -29.53125 C 12.75 -29.46875 14.789062 -29.3125 16.84375 -29.0625 C 17.300781 -29.007812 17.75 -28.925781 18.1875 -28.8125 C 18.632812 -28.707031 19.078125 -28.5625 19.515625 -28.375 C 21.054688 -27.726562 22.140625 -26.703125 22.765625 -25.296875 C 23.398438 -23.898438 23.773438 -22.414062 23.890625 -20.84375 C 23.941406 -19.769531 23.875 -18.695312 23.6875 -17.625 C 23.5 -16.5625 23.144531 -15.554688 22.625 -14.609375 C 22.351562 -14.148438 22.054688 -13.703125 21.734375 -13.265625 C 21.410156 -12.835938 21.046875 -12.4375 20.640625 -12.0625 C 20.484375 -11.90625 20.242188 -11.71875 19.921875 -11.5 C 19.597656 -11.28125 19.320312 -11.046875 19.09375 -10.796875 C 18.863281 -10.554688 18.757812 -10.289062 18.78125 -10 C 18.8125 -9.894531 18.851562 -9.785156 18.90625 -9.671875 C 18.957031 -9.566406 19.007812 -9.445312 19.0625 -9.3125 C 19.71875 -8.34375 20.421875 -7.40625 21.171875 -6.5 C 21.929688 -5.59375 22.644531 -4.664062 23.3125 -3.71875 C 23.613281 -3.289062 23.929688 -2.859375 24.265625 -2.421875 C 24.609375 -1.992188 24.875 -1.535156 25.0625 -1.046875 C 25.113281 -0.910156 25.164062 -0.75 25.21875 -0.5625 C 25.269531 -0.375 25.203125 -0.226562 25.015625 -0.125 C 24.929688 -0.09375 24.8125 -0.078125 24.65625 -0.078125 C 24.03125 -0.078125 23.40625 -0.0703125 22.78125 -0.0625 C 22.164062 -0.0507812 21.550781 -0.046875 20.9375 -0.046875 C 20.3125 -0.046875 19.679688 -0.0546875 19.046875 -0.078125 C 18.410156 -0.109375 17.851562 -0.351562 17.375 -0.8125 C 17.019531 -1.164062 16.71875 -1.5625 16.46875 -2 C 16.226562 -2.445312 15.960938 -2.875 15.671875 -3.28125 C 15.148438 -4.0625 14.613281 -4.835938 14.0625 -5.609375 C 13.507812 -6.378906 12.925781 -7.128906 12.3125 -7.859375 C 11.550781 -8.660156 10.160156 -9.128906 8.140625 -9.265625 C 8.109375 -9.265625 8.09375 -9.265625 8.09375 -9.265625 C 8.09375 -9.265625 8.082031 -9.265625 8.0625 -9.265625 Z M 6.390625 -16.640625 C 6.523438 -16.046875 6.867188 -15.601562 7.421875 -15.3125 C 7.984375 -15.03125 8.632812 -14.859375 9.375 -14.796875 C 10.113281 -14.734375 10.835938 -14.734375 11.546875 -14.796875 C 12.265625 -14.859375 12.84375 -14.945312 13.28125 -15.0625 C 14.46875 -15.351562 15.5 -15.910156 16.375 -16.734375 C 17.25 -17.554688 17.6875 -18.617188 17.6875 -19.921875 C 17.6875 -20.890625 17.453125 -21.695312 16.984375 -22.34375 C 16.515625 -22.988281 15.898438 -23.5 15.140625 -23.875 C 14.378906 -24.257812 13.5625 -24.507812 12.6875 -24.625 C 11.8125 -24.75 10.96875 -24.773438 10.15625 -24.703125 C 9.8125 -24.671875 9.367188 -24.613281 8.828125 -24.53125 C 8.285156 -24.445312 7.789062 -24.304688 7.34375 -24.109375 C 6.90625 -23.910156 6.628906 -23.578125 6.515625 -23.109375 C 6.003906 -20.929688 5.960938 -18.773438 6.390625 -16.640625 Z M 6.390625 -16.640625 "/></g></g></g><g fill="#000000" fill-opacity="1"><g transform="translate(289.655914, 247.856116)"><g><path d="M 22.71875 -10.28125 C 22.382812 -10.007812 21.898438 -9.828125 21.265625 -9.734375 C 20.640625 -9.640625 19.96875 -9.59375 19.25 -9.59375 C 18.53125 -9.59375 17.859375 -9.601562 17.234375 -9.625 C 16.617188 -9.65625 16.148438 -9.671875 15.828125 -9.671875 C 14.421875 -9.648438 13.03125 -9.628906 11.65625 -9.609375 C 10.28125 -9.597656 8.890625 -9.59375 7.484375 -9.59375 C 7.054688 -9.59375 6.78125 -9.457031 6.65625 -9.1875 C 6.539062 -8.914062 6.53125 -8.609375 6.625 -8.265625 C 6.71875 -7.929688 6.84375 -7.644531 7 -7.40625 C 7.570312 -6.675781 8.28125 -6.085938 9.125 -5.640625 C 9.976562 -5.203125 10.863281 -4.925781 11.78125 -4.8125 C 12.800781 -4.707031 13.65625 -4.847656 14.34375 -5.234375 C 15.039062 -5.628906 15.816406 -6.046875 16.671875 -6.484375 C 17.078125 -6.691406 17.351562 -6.820312 17.5 -6.875 C 17.65625 -6.9375 17.910156 -6.816406 18.265625 -6.515625 C 18.640625 -6.222656 18.992188 -5.816406 19.328125 -5.296875 C 19.671875 -4.785156 20.003906 -4.34375 20.328125 -3.96875 C 20.671875 -3.507812 20.65625 -3.078125 20.28125 -2.671875 C 19.90625 -2.265625 19.328125 -1.890625 18.546875 -1.546875 C 17.765625 -1.210938 16.910156 -0.925781 15.984375 -0.6875 C 15.066406 -0.445312 14.238281 -0.257812 13.5 -0.125 C 12.757812 0.0078125 12.253906 0.078125 11.984375 0.078125 C 10.171875 0.078125 8.503906 -0.273438 6.984375 -0.984375 C 5.460938 -1.703125 4.160156 -2.675781 3.078125 -3.90625 C 1.992188 -5.132812 1.179688 -6.515625 0.640625 -8.046875 C 0.109375 -9.585938 -0.0976562 -11.203125 0.015625 -12.890625 C 0.140625 -14.578125 0.660156 -16.21875 1.578125 -17.8125 C 2.273438 -19.050781 3.210938 -20.101562 4.390625 -20.96875 C 5.566406 -21.832031 6.863281 -22.472656 8.28125 -22.890625 C 9.695312 -23.304688 11.144531 -23.492188 12.625 -23.453125 C 14.113281 -23.421875 15.523438 -23.125 16.859375 -22.5625 C 18.191406 -22.007812 19.359375 -21.179688 20.359375 -20.078125 C 20.816406 -19.566406 21.253906 -18.925781 21.671875 -18.15625 C 22.097656 -17.382812 22.457031 -16.550781 22.75 -15.65625 C 23.050781 -14.769531 23.234375 -13.898438 23.296875 -13.046875 C 23.367188 -12.203125 23.28125 -11.429688 23.03125 -10.734375 C 22.976562 -10.566406 22.875 -10.414062 22.71875 -10.28125 Z M 16.59375 -14.5 C 16.675781 -14.6875 16.703125 -14.882812 16.671875 -15.09375 C 16.648438 -15.425781 16.503906 -15.738281 16.234375 -16.03125 C 15.503906 -17.050781 14.554688 -17.804688 13.390625 -18.296875 C 12.234375 -18.785156 11.050781 -18.757812 9.84375 -18.21875 C 9.300781 -17.976562 8.789062 -17.664062 8.3125 -17.28125 C 7.84375 -16.90625 7.40625 -16.503906 7 -16.078125 C 6.894531 -15.960938 6.785156 -15.835938 6.671875 -15.703125 C 6.566406 -15.566406 6.488281 -15.421875 6.4375 -15.265625 C 6.332031 -14.941406 6.382812 -14.644531 6.59375 -14.375 C 6.8125 -14.101562 7.082031 -13.96875 7.40625 -13.96875 L 15.671875 -13.96875 C 16.128906 -13.96875 16.4375 -14.144531 16.59375 -14.5 Z M 16.59375 -14.5 "/></g></g></g><g fill="#000000" fill-opacity="1"><g transform="translate(317.017159, 247.856116)"><g><path d="M 20.078125 -2.59375 C 18.484375 -1.238281 16.59375 -0.445312 14.40625 -0.21875 C 12.226562 0.0078125 10.054688 -0.398438 7.890625 -1.453125 C 7.785156 -1.535156 7.640625 -1.578125 7.453125 -1.578125 C 7.265625 -1.578125 7.070312 -1.523438 6.875 -1.421875 C 6.550781 -1.234375 6.390625 -0.9375 6.390625 -0.53125 C 6.390625 -0.125 6.390625 0.28125 6.390625 0.6875 C 6.390625 1.09375 6.390625 1.5 6.390625 1.90625 C 6.390625 2.175781 6.414062 2.613281 6.46875 3.21875 C 6.53125 3.820312 6.582031 4.472656 6.625 5.171875 C 6.664062 5.878906 6.65625 6.507812 6.59375 7.0625 C 6.539062 7.613281 6.394531 7.972656 6.15625 8.140625 C 6.039062 8.191406 5.914062 8.226562 5.78125 8.25 C 5.65625 8.28125 5.523438 8.3125 5.390625 8.34375 C 4.679688 8.425781 3.957031 8.515625 3.21875 8.609375 C 2.476562 8.703125 1.820312 8.632812 1.25 8.40625 C 0.6875 8.175781 0.335938 7.613281 0.203125 6.71875 C 0.015625 5.125 -0.0234375 3.535156 0.078125 1.953125 C 0.191406 0.378906 0.25 -1.1875 0.25 -2.75 C 0.25 -5.800781 0.253906 -8.898438 0.265625 -12.046875 C 0.273438 -15.191406 0.253906 -18.316406 0.203125 -21.421875 C 0.203125 -21.984375 0.234375 -22.382812 0.296875 -22.625 C 0.367188 -22.875 0.445312 -23.035156 0.53125 -23.109375 C 0.769531 -23.359375 1.164062 -23.4375 1.71875 -23.34375 C 2.269531 -23.25 2.835938 -23.113281 3.421875 -22.9375 C 4.003906 -22.757812 4.429688 -22.644531 4.703125 -22.59375 C 5.804688 -22.40625 6.84375 -22.390625 7.8125 -22.546875 C 8.78125 -22.710938 9.753906 -22.914062 10.734375 -23.15625 C 11.722656 -23.394531 12.757812 -23.515625 13.84375 -23.515625 C 15.382812 -23.515625 16.773438 -23.195312 18.015625 -22.5625 C 19.253906 -21.9375 20.304688 -21.078125 21.171875 -19.984375 C 22.035156 -18.890625 22.71875 -17.664062 23.21875 -16.3125 C 23.71875 -14.96875 23.992188 -13.570312 24.046875 -12.125 C 24.097656 -10.675781 23.921875 -9.28125 23.515625 -7.9375 C 23.171875 -6.800781 22.707031 -5.785156 22.125 -4.890625 C 21.539062 -4.003906 20.859375 -3.238281 20.078125 -2.59375 Z M 11.984375 -4.90625 C 12.035156 -4.90625 12.070312 -4.90625 12.09375 -4.90625 C 12.125 -4.90625 12.15625 -4.90625 12.1875 -4.90625 C 13.289062 -4.957031 14.273438 -5.289062 15.140625 -5.90625 C 16.003906 -6.53125 16.691406 -7.351562 17.203125 -8.375 C 17.710938 -9.40625 17.957031 -10.539062 17.9375 -11.78125 C 17.9375 -13.070312 17.671875 -14.226562 17.140625 -15.25 C 16.617188 -16.28125 15.914062 -17.097656 15.03125 -17.703125 C 14.15625 -18.316406 13.164062 -18.625 12.0625 -18.625 L 11.90625 -18.625 C 10.820312 -18.59375 9.847656 -18.257812 8.984375 -17.625 C 8.117188 -16.988281 7.441406 -16.140625 6.953125 -15.078125 C 6.472656 -14.015625 6.25 -12.820312 6.28125 -11.5 C 6.300781 -10.257812 6.5625 -9.140625 7.0625 -8.140625 C 7.5625 -7.140625 8.242188 -6.347656 9.109375 -5.765625 C 9.972656 -5.191406 10.929688 -4.90625 11.984375 -4.90625 Z M 11.984375 -4.90625 "/></g></g></g><g fill="#000000" fill-opacity="1"><g transform="translate(345.10696, 247.856116)"><g><path d="M 0.046875 -11.734375 C 0.015625 -13.242188 0.304688 -14.75 0.921875 -16.25 C 1.546875 -17.75 2.410156 -19.066406 3.515625 -20.203125 C 4.566406 -21.285156 5.769531 -22.109375 7.125 -22.671875 C 8.476562 -23.234375 9.867188 -23.515625 11.296875 -23.515625 C 11.429688 -23.515625 11.570312 -23.515625 11.71875 -23.515625 C 11.863281 -23.515625 12.003906 -23.515625 12.140625 -23.515625 C 12.140625 -23.515625 12.144531 -23.515625 12.15625 -23.515625 C 12.175781 -23.515625 12.1875 -23.515625 12.1875 -23.515625 C 14.53125 -23.515625 16.597656 -23.03125 18.390625 -22.0625 C 20.191406 -21.09375 21.601562 -19.742188 22.625 -18.015625 C 23.65625 -16.285156 24.171875 -14.289062 24.171875 -12.03125 C 24.171875 -8.488281 23.0625 -5.613281 20.84375 -3.40625 C 19.769531 -2.320312 18.484375 -1.488281 16.984375 -0.90625 C 15.484375 -0.332031 13.859375 -0.046875 12.109375 -0.046875 C 10.429688 -0.046875 8.867188 -0.347656 7.421875 -0.953125 C 5.984375 -1.554688 4.71875 -2.390625 3.625 -3.453125 C 2.53125 -4.523438 1.664062 -5.769531 1.03125 -7.1875 C 0.394531 -8.601562 0.0664062 -10.117188 0.046875 -11.734375 Z M 11.984375 -18.703125 C 11.035156 -18.703125 10.113281 -18.394531 9.21875 -17.78125 C 8.332031 -17.175781 7.597656 -16.394531 7.015625 -15.4375 C 6.441406 -14.476562 6.140625 -13.472656 6.109375 -12.421875 C 6.085938 -11.265625 6.273438 -10.144531 6.671875 -9.0625 C 7.078125 -7.988281 7.695312 -7.085938 8.53125 -6.359375 C 9.375 -5.628906 10.414062 -5.195312 11.65625 -5.0625 C 13.03125 -4.925781 14.191406 -5.140625 15.140625 -5.703125 C 16.085938 -6.273438 16.816406 -7.050781 17.328125 -8.03125 C 17.835938 -9.019531 18.117188 -10.097656 18.171875 -11.265625 C 18.234375 -12.441406 18.0625 -13.570312 17.65625 -14.65625 C 17.25 -15.738281 16.597656 -16.648438 15.703125 -17.390625 C 14.816406 -18.128906 13.6875 -18.566406 12.3125 -18.703125 C 12.25 -18.703125 12.191406 -18.703125 12.140625 -18.703125 C 12.085938 -18.703125 12.035156 -18.703125 11.984375 -18.703125 Z M 11.984375 -18.703125 "/></g></g></g><g fill="#000000" fill-opacity="1"><g transform="translate(373.318189, 247.856116)"><g><path d="M 25.015625 -26.84375 C 25.335938 -26.519531 25.460938 -26.195312 25.390625 -25.875 C 25.328125 -25.550781 25.132812 -25.09375 24.8125 -24.5 C 24.707031 -24.28125 24.546875 -23.976562 24.328125 -23.59375 C 24.109375 -23.21875 23.863281 -22.875 23.59375 -22.5625 C 23.332031 -22.257812 23.050781 -22.109375 22.75 -22.109375 C 22.320312 -22.109375 21.878906 -22.226562 21.421875 -22.46875 C 20.960938 -22.707031 20.5 -22.984375 20.03125 -23.296875 C 19.570312 -23.609375 19.144531 -23.832031 18.75 -23.96875 C 17.125 -24.5625 15.488281 -24.707031 13.84375 -24.40625 C 12.0625 -24.113281 10.578125 -23.425781 9.390625 -22.34375 C 8.203125 -21.269531 7.332031 -19.972656 6.78125 -18.453125 C 6.226562 -16.941406 6.039062 -15.363281 6.21875 -13.71875 C 6.394531 -12.070312 6.941406 -10.519531 7.859375 -9.0625 C 8.523438 -8.007812 9.453125 -7.160156 10.640625 -6.515625 C 11.828125 -5.867188 13.085938 -5.46875 14.421875 -5.3125 C 15.765625 -5.164062 17.015625 -5.285156 18.171875 -5.671875 C 19.148438 -6.015625 19.832031 -6.535156 20.21875 -7.234375 C 20.613281 -7.941406 20.847656 -8.738281 20.921875 -9.625 C 21.003906 -10.519531 21.035156 -11.382812 21.015625 -12.21875 C 21.015625 -12.519531 20.984375 -12.832031 20.921875 -13.15625 C 20.867188 -13.476562 20.875 -13.78125 20.9375 -14.0625 C 21.007812 -14.351562 21.207031 -14.535156 21.53125 -14.609375 C 21.78125 -14.691406 22.070312 -14.726562 22.40625 -14.71875 C 22.75 -14.707031 23.039062 -14.703125 23.28125 -14.703125 C 23.707031 -14.722656 24.128906 -14.765625 24.546875 -14.828125 C 24.972656 -14.898438 25.398438 -14.910156 25.828125 -14.859375 C 26.453125 -14.804688 26.816406 -14.609375 26.921875 -14.265625 C 27.023438 -13.929688 27.066406 -13.492188 27.046875 -12.953125 C 27.046875 -12.066406 27.070312 -11.125 27.125 -10.125 C 27.175781 -9.125 27.160156 -8.128906 27.078125 -7.140625 C 27.003906 -6.160156 26.769531 -5.257812 26.375 -4.4375 C 25.976562 -3.613281 25.335938 -2.929688 24.453125 -2.390625 C 23.160156 -1.628906 21.726562 -1.046875 20.15625 -0.640625 C 18.59375 -0.242188 17.003906 -0.046875 15.390625 -0.046875 C 14.066406 -0.046875 12.75 -0.1875 11.4375 -0.46875 C 10.125 -0.75 8.875 -1.1875 7.6875 -1.78125 C 6.019531 -2.613281 4.617188 -3.695312 3.484375 -5.03125 C 2.347656 -6.375 1.492188 -7.859375 0.921875 -9.484375 C 0.359375 -11.117188 0.0625 -12.8125 0.03125 -14.5625 C 0.0078125 -16.320312 0.269531 -18.046875 0.8125 -19.734375 C 1.351562 -21.421875 2.175781 -22.976562 3.28125 -24.40625 C 4.707031 -26.21875 6.378906 -27.613281 8.296875 -28.59375 C 10.210938 -29.582031 12.210938 -30.078125 14.296875 -30.078125 L 14.53125 -30.078125 C 16.226562 -30.054688 17.90625 -29.832031 19.5625 -29.40625 C 21.226562 -28.988281 22.789062 -28.320312 24.25 -27.40625 C 24.414062 -27.300781 24.554688 -27.203125 24.671875 -27.109375 C 24.796875 -27.015625 24.910156 -26.925781 25.015625 -26.84375 Z M 25.015625 -26.84375 "/></g></g></g><g fill="#000000" fill-opacity="1"><g transform="translate(404.524585, 247.856116)"><g><path d="M 8.421875 -8.375 C 8.015625 -8.375 7.554688 -8.328125 7.046875 -8.234375 C 6.535156 -8.140625 6.28125 -7.820312 6.28125 -7.28125 C 6.28125 -6.632812 6.289062 -5.992188 6.3125 -5.359375 C 6.34375 -4.722656 6.359375 -4.082031 6.359375 -3.4375 C 6.359375 -3.25 6.378906 -2.925781 6.421875 -2.46875 C 6.460938 -2.007812 6.46875 -1.570312 6.4375 -1.15625 C 6.40625 -0.738281 6.285156 -0.460938 6.078125 -0.328125 C 5.960938 -0.273438 5.851562 -0.238281 5.75 -0.21875 C 5.644531 -0.207031 5.535156 -0.1875 5.421875 -0.15625 C 4.910156 -0.15625 4.40625 -0.148438 3.90625 -0.140625 C 3.40625 -0.128906 2.910156 -0.109375 2.421875 -0.078125 C 2.128906 -0.078125 1.785156 -0.0625 1.390625 -0.03125 C 1.003906 -0.0078125 0.675781 -0.09375 0.40625 -0.28125 C 0.132812 -0.519531 0.0234375 -0.921875 0.078125 -1.484375 C 0.128906 -2.054688 0.15625 -2.503906 0.15625 -2.828125 C 0.15625 -3.367188 0.15625 -3.914062 0.15625 -4.46875 C 0.15625 -5.019531 0.15625 -5.554688 0.15625 -6.078125 C 0.15625 -7.179688 0.15625 -8.269531 0.15625 -9.34375 C 0.15625 -10.425781 0.171875 -11.507812 0.203125 -12.59375 C 0.203125 -14.800781 0.203125 -17 0.203125 -19.1875 C 0.203125 -21.375 0.1875 -23.570312 0.15625 -25.78125 C 0.15625 -26.113281 0.128906 -26.515625 0.078125 -26.984375 C 0.0234375 -27.453125 0.0078125 -27.914062 0.03125 -28.375 C 0.0625 -28.832031 0.171875 -29.195312 0.359375 -29.46875 C 0.609375 -29.769531 0.941406 -29.953125 1.359375 -30.015625 C 1.773438 -30.085938 2.203125 -30.101562 2.640625 -30.0625 C 3.085938 -30.019531 3.476562 -29.984375 3.8125 -29.953125 C 4.59375 -29.929688 5.359375 -29.921875 6.109375 -29.921875 C 6.867188 -29.921875 7.625 -29.90625 8.375 -29.875 C 9.882812 -29.851562 11.398438 -29.765625 12.921875 -29.609375 C 14.453125 -29.460938 15.945312 -29.160156 17.40625 -28.703125 C 18.132812 -28.484375 18.875 -28.148438 19.625 -27.703125 C 20.382812 -27.265625 21.066406 -26.660156 21.671875 -25.890625 C 22.285156 -25.117188 22.710938 -24.140625 22.953125 -22.953125 C 23.710938 -19.390625 23.710938 -16.546875 22.953125 -14.421875 C 22.203125 -12.304688 20.625 -10.738281 18.21875 -9.71875 C 16.726562 -9.070312 15.132812 -8.679688 13.4375 -8.546875 C 11.738281 -8.410156 10.09375 -8.351562 8.5 -8.375 C 8.476562 -8.375 8.457031 -8.375 8.4375 -8.375 C 8.425781 -8.375 8.421875 -8.375 8.421875 -8.375 Z M 6.4375 -14.734375 C 6.4375 -14.441406 6.554688 -14.1875 6.796875 -13.96875 C 7.097656 -13.726562 7.476562 -13.640625 7.9375 -13.703125 C 8.394531 -13.773438 8.800781 -13.796875 9.15625 -13.765625 C 9.613281 -13.765625 10.050781 -13.75 10.46875 -13.71875 C 10.882812 -13.695312 11.304688 -13.695312 11.734375 -13.71875 C 12.597656 -13.75 13.40625 -13.90625 14.15625 -14.1875 C 14.914062 -14.46875 15.554688 -14.988281 16.078125 -15.75 C 16.421875 -16.257812 16.671875 -16.878906 16.828125 -17.609375 C 16.992188 -18.335938 17.050781 -19.054688 17 -19.765625 C 16.945312 -20.484375 16.785156 -21.101562 16.515625 -21.625 C 15.867188 -22.863281 14.976562 -23.648438 13.84375 -23.984375 C 12.707031 -24.328125 11.492188 -24.5 10.203125 -24.5 C 9.929688 -24.5 9.554688 -24.507812 9.078125 -24.53125 C 8.609375 -24.5625 8.15625 -24.5625 7.71875 -24.53125 C 7.289062 -24.507812 6.972656 -24.390625 6.765625 -24.171875 C 6.546875 -23.953125 6.4375 -23.707031 6.4375 -23.4375 Z M 6.4375 -14.734375 "/></g></g></g><g fill="#000000" fill-opacity="1"><g transform="translate(432.088206, 247.856116)"><g><path d="M 23.078125 -24.984375 C 22.804688 -24.710938 22.425781 -24.609375 21.9375 -24.671875 C 21.457031 -24.742188 21.023438 -24.78125 20.640625 -24.78125 C 19.859375 -24.78125 19.078125 -24.78125 18.296875 -24.78125 C 17.515625 -24.78125 16.734375 -24.78125 15.953125 -24.78125 C 15.578125 -24.78125 15.3125 -24.648438 15.15625 -24.390625 C 15.007812 -24.128906 14.925781 -23.820312 14.90625 -23.46875 C 14.894531 -23.125 14.890625 -22.816406 14.890625 -22.546875 C 14.890625 -18.984375 14.890625 -15.425781 14.890625 -11.875 C 14.890625 -8.332031 14.90625 -4.78125 14.9375 -1.21875 C 14.9375 -0.78125 14.820312 -0.492188 14.59375 -0.359375 C 14.363281 -0.222656 14.046875 -0.171875 13.640625 -0.203125 C 13.210938 -0.234375 12.773438 -0.253906 12.328125 -0.265625 C 11.878906 -0.273438 11.425781 -0.269531 10.96875 -0.25 C 10.675781 -0.25 10.328125 -0.1875 9.921875 -0.0625 C 9.515625 0.0625 9.175781 0 8.90625 -0.25 C 8.6875 -0.457031 8.578125 -0.804688 8.578125 -1.296875 C 8.578125 -1.785156 8.578125 -2.160156 8.578125 -2.421875 C 8.578125 -4.421875 8.582031 -6.421875 8.59375 -8.421875 C 8.613281 -10.421875 8.625 -12.40625 8.625 -14.375 C 8.625 -15.394531 8.625 -16.410156 8.625 -17.421875 C 8.625 -18.441406 8.609375 -19.445312 8.578125 -20.4375 C 8.578125 -20.707031 8.601562 -21.070312 8.65625 -21.53125 C 8.71875 -21.988281 8.738281 -22.453125 8.71875 -22.921875 C 8.707031 -23.398438 8.617188 -23.804688 8.453125 -24.140625 C 8.296875 -24.484375 8.003906 -24.65625 7.578125 -24.65625 C 6.492188 -24.65625 5.414062 -24.644531 4.34375 -24.625 C 3.28125 -24.613281 2.210938 -24.597656 1.140625 -24.578125 C 1.003906 -24.578125 0.851562 -24.582031 0.6875 -24.59375 C 0.53125 -24.601562 0.394531 -24.664062 0.28125 -24.78125 C 0.175781 -24.882812 0.109375 -25.007812 0.078125 -25.15625 C 0.0546875 -25.3125 0.046875 -25.457031 0.046875 -25.59375 C 0.015625 -26.207031 0 -26.816406 0 -27.421875 C 0 -28.035156 0 -28.640625 0 -29.234375 C 0 -29.335938 0.00390625 -29.441406 0.015625 -29.546875 C 0.0351562 -29.660156 0.0820312 -29.757812 0.15625 -29.84375 C 0.269531 -29.945312 0.394531 -30.007812 0.53125 -30.03125 C 0.664062 -30.0625 0.800781 -30.078125 0.9375 -30.078125 C 4.46875 -29.992188 7.988281 -29.953125 11.5 -29.953125 C 15.007812 -29.953125 18.519531 -29.984375 22.03125 -30.046875 C 22.21875 -30.046875 22.40625 -30.035156 22.59375 -30.015625 C 22.78125 -30.003906 22.941406 -29.929688 23.078125 -29.796875 C 23.210938 -29.660156 23.300781 -29.488281 23.34375 -29.28125 C 23.382812 -29.082031 23.414062 -28.890625 23.4375 -28.703125 C 23.4375 -28.378906 23.441406 -28.054688 23.453125 -27.734375 C 23.472656 -27.410156 23.484375 -27.085938 23.484375 -26.765625 C 23.503906 -26.492188 23.507812 -26.226562 23.5 -25.96875 C 23.488281 -25.71875 23.414062 -25.484375 23.28125 -25.265625 C 23.25 -25.179688 23.179688 -25.085938 23.078125 -24.984375 Z M 23.078125 -24.984375 "/></g></g></g><g clip-path="url(#b44b5c21ee)"><g clip-path="url(#8fabef77fa)"><g clip-path="url(#7a44a1ade3)"><path fill="#ff0000" d="M 546.289062 150.125 C 548.152344 149.5625 548.941406 150.640625 549.625 151.753906 C 551.539062 154.828125 552.828125 158.128906 553.105469 161.789062 C 553.980469 173.449219 551.683594 184.554688 546.855469 195.105469 C 541.902344 205.921875 534.242188 214.351562 523.644531 219.917969 C 518.660156 222.535156 513.527344 224.882812 508.277344 227.441406 C 508.84375 227.652344 509.527344 227.980469 510.253906 228.179688 C 515.183594 229.585938 515.933594 230.417969 516.5625 235.554688 C 516.707031 236.703125 516.640625 237.871094 516.679688 239.34375 C 515.550781 239.203125 514.734375 239.121094 513.929688 238.996094 C 505.230469 237.628906 496.554688 236.109375 487.816406 234.992188 C 485.699219 234.714844 484.675781 233.757812 483.9375 232.214844 C 482.460938 229.105469 482.378906 225.679688 482.605469 222.367188 C 482.6875 221.207031 483.972656 219.960938 484.96875 219.039062 C 492.28125 212.304688 498.90625 204.957031 504.523438 196.765625 C 506.269531 194.207031 507.628906 191.390625 509.308594 188.453125 C 510.304688 188.789062 510.769531 189.949219 511.121094 190.988281 C 512.773438 195.855469 513.484375 200.726562 510.636719 205.464844 C 509.289062 207.699219 507.964844 209.945312 506.597656 212.164062 C 505.988281 213.152344 505.277344 214.082031 504.464844 215.257812 C 512.25 214.765625 531.128906 200.191406 537.359375 190.089844 C 544.9375 177.800781 547.652344 164.371094 546.289062 150.125 Z M 546.289062 150.125 " fill-opacity="1" fill-rule="nonzero"/></g></g></g></svg>